<?xml version="1.0" encoding="UTF-8" standalone="no"?>
<!-- Created with Inkscape (http://www.inkscape.org/) -->

<svg
   width="34.369686mm"
   height="29.853346mm"
   viewBox="0 0 34.369686 29.853346"
   version="1.1"
   id="svg8879"
   sodipodi:docname="fig-transmission-detail-plot-4.svg"
   inkscape:version="1.1.2 (0a00cf5339, 2022-02-04, custom)"
   xmlns:inkscape="http://www.inkscape.org/namespaces/inkscape"
   xmlns:sodipodi="http://sodipodi.sourceforge.net/DTD/sodipodi-0.dtd"
   xmlns="http://www.w3.org/2000/svg"
   xmlns:svg="http://www.w3.org/2000/svg">
  <sodipodi:namedview
     id="namedview8881"
     pagecolor="#ffffff"
     bordercolor="#666666"
     borderopacity="1.0"
     inkscape:pageshadow="2"
     inkscape:pageopacity="0.0"
     inkscape:pagecheckerboard="0"
     inkscape:document-units="mm"
     showgrid="false"
     inkscape:zoom="1.8116734"
     inkscape:cx="16.0073"
     inkscape:cy="118.39882"
     inkscape:window-width="1099"
     inkscape:window-height="1048"
     inkscape:window-x="56"
     inkscape:window-y="0"
     inkscape:window-maximized="0"
     inkscape:current-layer="layer1"
     fit-margin-top="0"
     fit-margin-left="0"
     fit-margin-right="0"
     fit-margin-bottom="0" />
  <defs
     id="defs8876">
    <clipPath
       id="clip9">
      <path
         d="m 96.238281,400 h 93.253909 v 65.66797 H 96.238281 Z m 0,0"
         id="path992" />
    </clipPath>
    <clipPath
       id="clip10">
      <path
         d="m 96.238281,398 h 93.253909 v 67.66797 H 96.238281 Z m 0,0"
         id="path995" />
    </clipPath>
    <clipPath
       id="clip11">
      <path
         d="m 200.82812,396 h 93.25782 v 69.66797 h -93.25782 z m 0,0"
         id="path998" />
    </clipPath>
  </defs>
  <g
     inkscape:label="Calque 1"
     inkscape:groupmode="layer"
     id="layer1"
     transform="translate(-89.705434,-90.345712)">
    <path
       style="fill:none;stroke:#bfbfbf;stroke-width:0.070291;stroke-linecap:butt;stroke-linejoin:miter;stroke-miterlimit:10;stroke-opacity:1"
       d="M 93.188386,116.61527 V 90.416003 M 98.6716,116.61527 V 90.416003 m 5.48184,26.199267 V 90.416003 m 5.48321,26.199267 V 90.416003 m 5.48321,26.199267 V 90.416003 m 5.48322,26.199267 V 90.416003"
       id="path1994" />
    <path
       style="fill:none;stroke:#7f7f7f;stroke-width:0.070291;stroke-linecap:butt;stroke-linejoin:miter;stroke-miterlimit:10;stroke-opacity:1"
       d="M 90.446089,116.61527 V 90.416003 m 5.483215,26.199267 V 90.416003 m 5.483216,26.199267 V 90.416003 m 5.48321,26.199267 V 90.416003 m 5.48322,26.199267 V 90.416003 m 5.48321,26.199267 V 90.416003 m 5.48322,26.199267 V 90.416003"
       id="path1996" />
    <path
       style="fill:none;stroke:#bfbfbf;stroke-width:0.070291;stroke-linecap:butt;stroke-linejoin:miter;stroke-miterlimit:10;stroke-opacity:1"
       d="m 90.446089,113.99562 h 32.899291 m -32.899291,-5.24068 h 32.899291 m -32.899291,-5.2393 H 123.34538 M 90.446089,98.274957 H 123.34538 M 90.446089,93.035656 h 32.899291"
       id="path1998" />
    <path
       style="fill:none;stroke:#7f7f7f;stroke-width:0.070291;stroke-linecap:butt;stroke-linejoin:miter;stroke-miterlimit:10;stroke-opacity:1"
       d="m 90.446089,116.61527 h 32.899291 m -32.899291,-5.24068 h 32.899291 m -32.899291,-5.2393 H 123.34538 M 90.446089,100.89598 H 123.34538 M 90.446089,95.655306 H 123.34538 M 90.446089,90.416003 h 32.899291"
       id="path2000" />
    <path
       style="fill:none;stroke:#7f7f7f;stroke-width:0.070291;stroke-linecap:butt;stroke-linejoin:miter;stroke-miterlimit:10;stroke-opacity:1"
       d="m 93.188386,116.61527 v -1.00046 m 5.483214,1.00046 v -1.00046 m 5.48184,1.00046 v -1.00046 m 5.48321,1.00046 v -1.00046 m 5.48321,1.00046 v -1.00046 m 5.48322,1.00046 v -1.00046 M 93.188386,90.416003 v 0.99908 m 5.483214,-0.99908 v 0.99908 m 5.48184,-0.99908 v 0.99908 m 5.48321,-0.99908 v 0.99908 m 5.48321,-0.99908 v 0.99908 m 5.48322,-0.99908 v 0.99908"
       id="path2002" />
    <path
       style="fill:none;stroke:#7f7f7f;stroke-width:0.070291;stroke-linecap:butt;stroke-linejoin:miter;stroke-miterlimit:10;stroke-opacity:1"
       d="m 90.446089,116.61527 v -1.50069 m 5.483215,1.50069 v -1.50069 m 5.483216,1.50069 v -1.50069 m 5.48321,1.50069 v -1.50069 m 5.48322,1.50069 v -1.50069 m 5.48321,1.50069 v -1.50069 m 5.48322,1.50069 v -1.50069 M 90.446089,90.416003 v 1.499305 m 5.483215,-1.499305 v 1.499305 m 5.483216,-1.499305 v 1.499305 m 5.48321,-1.499305 v 1.499305 m 5.48322,-1.499305 v 1.499305 m 5.48321,-1.499305 v 1.499305 m 5.48322,-1.499305 v 1.499305"
       id="path2004" />
    <path
       style="fill:none;stroke:#7f7f7f;stroke-width:0.070291;stroke-linecap:butt;stroke-linejoin:miter;stroke-miterlimit:10;stroke-opacity:1"
       d="m 90.446089,113.99562 h 1.000457 m -1.000457,-5.24068 h 1.000457 m -1.000457,-5.2393 h 1.000457 m -1.000457,-5.240683 h 1.000457 m -1.000457,-5.239301 h 1.000457 m 31.898834,20.959964 h -1.00046 m 1.00046,-5.24068 h -1.00046 m 1.00046,-5.2393 h -1.00046 m 1.00046,-5.240683 h -1.00046 m 1.00046,-5.239301 h -1.00046"
       id="path2006" />
    <path
       style="fill:none;stroke:#7f7f7f;stroke-width:0.070291;stroke-linecap:butt;stroke-linejoin:miter;stroke-miterlimit:10;stroke-opacity:1"
       d="m 90.446089,116.61527 h 1.500685 m -1.500685,-5.24068 h 1.500685 m -1.500685,-5.2393 h 1.500685 m -1.500685,-5.23931 h 1.500685 m -1.500685,-5.240674 h 1.500685 m -1.500685,-5.239303 h 1.500685 m 31.398606,26.199267 h -1.50069 m 1.50069,-5.24068 h -1.50069 m 1.50069,-5.2393 h -1.50069 m 1.50069,-5.23931 h -1.50069 m 1.50069,-5.240674 h -1.50069 m 1.50069,-5.239303 h -1.50069"
       id="path2008" />
    <path
       style="fill:none;stroke:#000000;stroke-width:0.140582;stroke-linecap:butt;stroke-linejoin:miter;stroke-miterlimit:10;stroke-opacity:1"
       d="M 90.446089,116.61527 V 90.416003 h 32.899291 v 26.199267 z m 0,0"
       id="path2010" />
    <g
       style="fill:#000000;fill-opacity:1"
       id="g2014"
       transform="matrix(0.35277777,0,0,0.35277777,19.598393,-47.662042)">
      <g
         id="use2012"
         transform="translate(198.338,475.608)">
        <path
           style="stroke:none"
           d="m 4.578125,-3.1875 c 0,-0.796875 -0.046875,-1.59375 -0.390625,-2.328125 -0.453125,-0.96875 -1.28125,-1.125 -1.6875,-1.125 -0.609375,0 -1.328125,0.265625 -1.75,1.1875 -0.3125,0.6875 -0.359375,1.46875 -0.359375,2.265625 0,0.75 0.03125,1.640625 0.453125,2.40625 0.421875,0.796875 1.15625,1 1.640625,1 0.53125,0 1.296875,-0.203125 1.734375,-1.15625 0.3125,-0.6875 0.359375,-1.46875 0.359375,-2.25 z M 2.484375,0 C 2.09375,0 1.5,-0.25 1.328125,-1.203125 1.21875,-1.796875 1.21875,-2.71875 1.21875,-3.3125 c 0,-0.640625 0,-1.296875 0.078125,-1.828125 0.1875,-1.1875 0.9375,-1.28125 1.1875,-1.28125 0.328125,0 0.984375,0.1875 1.171875,1.171875 0.109375,0.5625 0.109375,1.3125 0.109375,1.9375 0,0.75 0,1.421875 -0.109375,2.0625 C 3.5,-0.296875 2.9375,0 2.484375,0 Z m 0,0"
           id="path10608" />
      </g>
    </g>
    <g
       style="fill:#000000;fill-opacity:1"
       id="g2018"
       transform="matrix(0.35277777,0,0,0.35277777,19.598393,-47.662042)">
      <g
         id="use2016"
         transform="translate(213.881,475.608)">
        <path
           style="stroke:none"
           d="m 2.9375,-6.375 c 0,-0.25 0,-0.265625 -0.234375,-0.265625 C 2.078125,-6 1.203125,-6 0.890625,-6 v 0.3125 c 0.203125,0 0.78125,0 1.296875,-0.265625 v 5.171875 c 0,0.359375 -0.03125,0.46875 -0.921875,0.46875 h -0.3125 V 0 c 0.34375,-0.03125 1.203125,-0.03125 1.609375,-0.03125 0.390625,0 1.265625,0 1.609375,0.03125 v -0.3125 h -0.3125 c -0.90625,0 -0.921875,-0.109375 -0.921875,-0.46875 z m 0,0"
           id="path10588" />
      </g>
    </g>
    <g
       style="fill:#000000;fill-opacity:1"
       id="g2022"
       transform="matrix(0.35277777,0,0,0.35277777,19.598393,-47.662042)">
      <g
         id="use2020"
         transform="translate(229.423,475.608)">
        <path
           style="stroke:none"
           d="m 1.265625,-0.765625 1.0625,-1.03125 c 1.546875,-1.375 2.140625,-1.90625 2.140625,-2.90625 0,-1.140625 -0.890625,-1.9375 -2.109375,-1.9375 -1.125,0 -1.859375,0.921875 -1.859375,1.8125 0,0.546875 0.5,0.546875 0.53125,0.546875 0.171875,0 0.515625,-0.109375 0.515625,-0.53125 0,-0.25 -0.1875,-0.515625 -0.53125,-0.515625 -0.078125,0 -0.09375,0 -0.125,0.015625 0.21875,-0.65625 0.765625,-1.015625 1.34375,-1.015625 0.90625,0 1.328125,0.8125 1.328125,1.625 C 3.5625,-3.90625 3.078125,-3.125 2.515625,-2.5 l -1.90625,2.125 C 0.5,-0.265625 0.5,-0.234375 0.5,0 H 4.203125 L 4.46875,-1.734375 H 4.234375 C 4.171875,-1.4375 4.109375,-1 4,-0.84375 3.9375,-0.765625 3.28125,-0.765625 3.0625,-0.765625 Z m 0,0"
           id="path10592" />
      </g>
    </g>
    <g
       style="fill:#000000;fill-opacity:1"
       id="g2026"
       transform="matrix(0.35277777,0,0,0.35277777,19.598393,-47.662042)">
      <g
         id="use2024"
         transform="translate(244.965,475.608)">
        <path
           style="stroke:none"
           d="m 2.890625,-3.515625 c 0.8125,-0.265625 1.390625,-0.953125 1.390625,-1.75 0,-0.8125 -0.875,-1.375 -1.828125,-1.375 -1,0 -1.765625,0.59375 -1.765625,1.359375 0,0.328125 0.21875,0.515625 0.515625,0.515625 0.296875,0 0.5,-0.21875 0.5,-0.515625 0,-0.484375 -0.46875,-0.484375 -0.609375,-0.484375 0.296875,-0.5 0.953125,-0.625 1.3125,-0.625 0.421875,0 0.96875,0.21875 0.96875,1.109375 0,0.125 -0.03125,0.703125 -0.28125,1.140625 C 2.796875,-3.65625 2.453125,-3.625 2.203125,-3.625 2.125,-3.609375 1.890625,-3.59375 1.8125,-3.59375 c -0.078125,0.015625 -0.140625,0.03125 -0.140625,0.125 0,0.109375 0.0625,0.109375 0.234375,0.109375 h 0.4375 c 0.8125,0 1.1875,0.671875 1.1875,1.65625 0,1.359375 -0.6875,1.640625 -1.125,1.640625 -0.4375,0 -1.1875,-0.171875 -1.53125,-0.75 0.34375,0.046875 0.65625,-0.171875 0.65625,-0.546875 0,-0.359375 -0.265625,-0.5625 -0.546875,-0.5625 -0.25,0 -0.5625,0.140625 -0.5625,0.578125 0,0.90625 0.921875,1.5625 2.015625,1.5625 1.21875,0 2.125,-0.90625 2.125,-1.921875 0,-0.8125 -0.640625,-1.59375 -1.671875,-1.8125 z m 0,0"
           id="path10596" />
      </g>
    </g>
    <g
       style="fill:#000000;fill-opacity:1"
       id="g2030"
       transform="matrix(0.35277777,0,0,0.35277777,19.598393,-47.662042)">
      <g
         id="use2028"
         transform="translate(260.508,475.608)">
        <path
           style="stroke:none"
           d="m 2.9375,-1.640625 v 0.859375 c 0,0.359375 -0.03125,0.46875 -0.765625,0.46875 H 1.96875 V 0 C 2.375,-0.03125 2.890625,-0.03125 3.3125,-0.03125 c 0.421875,0 0.9375,0 1.359375,0.03125 v -0.3125 h -0.21875 c -0.734375,0 -0.75,-0.109375 -0.75,-0.46875 V -1.640625 H 4.6875 v -0.3125 H 3.703125 v -4.53125 c 0,-0.203125 0,-0.265625 -0.171875,-0.265625 -0.078125,0 -0.109375,0 -0.1875,0.125 l -3.0625,4.671875 v 0.3125 z m 0.046875,-0.3125 H 0.5625 l 2.421875,-3.71875 z m 0,0"
           id="path10584" />
      </g>
    </g>
    <g
       style="fill:#000000;fill-opacity:1"
       id="g2034"
       transform="matrix(0.35277777,0,0,0.35277777,19.598393,-47.662042)">
      <g
         id="use2032"
         transform="translate(276.04999,475.608)">
        <path
           style="stroke:none"
           d="m 4.46875,-2 c 0,-1.1875 -0.8125,-2.1875 -1.890625,-2.1875 -0.46875,0 -0.90625,0.15625 -1.265625,0.515625 V -5.625 c 0.203125,0.0625 0.53125,0.125 0.84375,0.125 1.234375,0 1.9375,-0.90625 1.9375,-1.03125 0,-0.0625 -0.03125,-0.109375 -0.109375,-0.109375 0,0 -0.03125,0 -0.078125,0.03125 C 3.703125,-6.515625 3.21875,-6.3125 2.546875,-6.3125 2.15625,-6.3125 1.6875,-6.390625 1.21875,-6.59375 1.140625,-6.625 1.125,-6.625 1.109375,-6.625 1,-6.625 1,-6.546875 1,-6.390625 V -3.4375 c 0,0.171875 0,0.25 0.140625,0.25 0.078125,0 0.09375,-0.015625 0.140625,-0.078125 C 1.390625,-3.421875 1.75,-3.96875 2.5625,-3.96875 c 0.515625,0 0.765625,0.453125 0.84375,0.640625 0.15625,0.375 0.1875,0.75 0.1875,1.25 0,0.359375 0,0.953125 -0.25,1.375 C 3.109375,-0.3125 2.734375,-0.0625 2.28125,-0.0625 c -0.71875,0 -1.296875,-0.53125 -1.46875,-1.109375 0.03125,0 0.0625,0.015625 0.171875,0.015625 0.328125,0 0.5,-0.25 0.5,-0.484375 0,-0.25 -0.171875,-0.5 -0.5,-0.5 C 0.84375,-2.140625 0.5,-2.0625 0.5,-1.609375 0.5,-0.75 1.1875,0.21875 2.296875,0.21875 3.453125,0.21875 4.46875,-0.734375 4.46875,-2 Z m 0,0"
           id="path10576" />
      </g>
    </g>
    <g
       style="fill:#000000;fill-opacity:1"
       id="g2038"
       transform="matrix(0.35277777,0,0,0.35277777,19.598393,-47.662042)">
      <g
         id="use2036"
         transform="translate(291.59201,475.608)">
        <path
           style="stroke:none"
           d="m 1.3125,-3.265625 v -0.25 c 0,-2.515625 1.234375,-2.875 1.75,-2.875 0.234375,0 0.65625,0.0625 0.875,0.40625 -0.15625,0 -0.546875,0 -0.546875,0.4375 0,0.3125 0.234375,0.46875 0.453125,0.46875 0.15625,0 0.46875,-0.09375 0.46875,-0.484375 0,-0.59375 -0.4375,-1.078125 -1.265625,-1.078125 -1.28125,0 -2.625,1.28125 -2.625,3.484375 0,2.671875 1.15625,3.375 2.078125,3.375 1.109375,0 2.0625,-0.9375 2.0625,-2.25 0,-1.265625 -0.890625,-2.21875 -2,-2.21875 -0.671875,0 -1.046875,0.5 -1.25,0.984375 z M 2.5,-0.0625 c -0.625,0 -0.921875,-0.59375 -0.984375,-0.75 -0.1875,-0.46875 -0.1875,-1.265625 -0.1875,-1.4375 0,-0.78125 0.328125,-1.78125 1.21875,-1.78125 0.171875,0 0.625,0 0.9375,0.625 0.171875,0.359375 0.171875,0.875 0.171875,1.359375 0,0.484375 0,0.984375 -0.171875,1.34375 C 3.1875,-0.109375 2.734375,-0.0625 2.5,-0.0625 Z m 0,0"
           id="path10580" />
      </g>
    </g>
    <g
       clip-path="url(#clip11)"
       clip-rule="nonzero"
       id="g2044"
       transform="matrix(0.35277777,0,0,0.35277777,19.598393,-47.662042)">
      <path
         style="fill:none;stroke:#000000;stroke-width:0.3985;stroke-linecap:butt;stroke-linejoin:miter;stroke-miterlimit:10;stroke-opacity:1"
         d="m 0.776469,2.278031 0.777343,0.4375 0.777344,2.453125 0.777344,4.085938 0.777344,6.472656 0.777343,-11.421875 0.777344,9.574219 0.777344,8.542969 0.777344,10.195312 0.777343,7.46875 0.777344,-2.621094 0.777344,12.066407 0.773437,13.03125 0.777344,11.121093 0.777344,7.171875 0.777344,3.570313 0.777343,4.804687 0.777344,5.683594 0.777344,4.15625 0.777344,1.66406 0.777343,-0.0234 0.777344,0.14063 0.777344,0.97266 0.777344,1.29687 0.777343,1.03125 0.777344,0.46484 0.777344,0.0742 0.777344,-0.22265 0.777343,-0.20313 0.777344,0.0391 0.773438,0.21485 0.777343,0.15234 0.777344,-0.0977 0.777344,-0.51563 0.777344,-0.53906 0.777343,0.23047 0.777344,0.51953 0.777344,0.20703 0.777344,-0.3125 0.777343,-0.75 0.777344,-0.44922 0.777344,0.29297 0.777344,0.75781 0.777343,1 0.777344,0.8711 0.777344,0.6875 0.777344,0.23828 0.777343,-0.0899 0.773438,0.15625 0.777344,0.66797 0.777343,0.42578 0.777344,-0.58984 0.777344,-1.75 0.777344,-2.24609 0.777343,-1.89844 0.777344,-0.94531 0.777344,0.0898 0.777344,0.82422 0.777343,0.76953 0.777344,0.47266 0.777344,0.14453 0.777344,-0.008 0.777343,0.25391 0.777344,0.82813 0.777344,1.32031 0.777344,0.85547 0.773437,-0.73047 0.777344,-1.95313 0.777344,-2.11718 0.777343,-1.890629 0.777344,-1.476562 0.777344,-1.707031 0.777344,-1.4375 0.777343,-1.316407 0.777344,-0.636718 0.777344,0.257812 0.777344,1.09375 0.777343,1.847656 0.777344,2.578125 0.777344,2.093754 0.777344,0.86718 0.777343,-0.3125 0.777344,-0.71875 0.777344,0.0625 0.773437,0.9336 0.777344,2.01172 0.777344,1.40625 0.777344,-0.65235 0.777343,-1.82812 0.777344,-2.19141 0.777344,-1.929686 0.777344,-1.519531 0.777343,-1.433594 0.777344,-0.6875 0.777344,-0.109375 0.777344,0.839844 0.777343,2.015625 0.777344,2.351562 0.777344,1.640625 0.777344,1.25 0.777343,1.37109 0.777344,1.21875 0.773438,1.17188 0.777343,-0.0195 0.777344,1.28515 0.777344,-0.082 0.777344,-2.55469 0.777343,-4.24218 0.777344,-5.175784 0.777344,-4.503906 0.777344,-2.148437 0.777343,0.07031 0.777344,1.15625 0.777344,1.578125 0.777344,1.800781 0.777343,2.65625 0.777344,3.730471 0.777344,4.55859 0.777344,4.01953 0.777343,1.69532"
         transform="matrix(1,0,0,-1,200.829,512.821)"
         id="path2040" />
      <path
         style="fill:none;stroke:#ff0000;stroke-width:0.3985;stroke-linecap:butt;stroke-linejoin:miter;stroke-miterlimit:10;stroke-opacity:1"
         d="M 0.776469,6.875e-4 1.553812,1.887406 2.331156,4.762406 3.1085,8.735063 3.885844,14.28975 4.663187,4.000688 5.440531,13.071 6.217875,21.934281 6.995219,34.72725 7.772562,44.313188 8.549906,37.488969 9.32725,48.348344 10.100687,60.8835 l 0.777344,10.699219 0.777344,7.082031 0.777344,4.113281 0.777343,5.433594 0.777344,6.316406 0.777344,4.632813 0.777344,1.980466 0.777343,0.33203 0.777344,0.71094 0.777344,1.89453 0.777344,2.11719 0.777343,1.25781 0.777344,-0.16015 0.777344,-1.38282 0.777344,-1.98047 0.777343,-1.71875 0.777344,-0.99609 0.773438,-0.25 0.777343,0.18359 0.777344,0.42579 0.777344,0.47265 0.777344,0.83203 0.777343,1.85157 0.777344,2.29687 0.777344,1.79688 0.777344,0.6914 0.777343,-0.6914 0.777344,-1.53125 0.777344,-1.65235 0.777344,-1.59375 0.777343,-1.29687 0.777344,-1.1836 0.777344,-0.875 0.777344,-0.57812 0.777343,-0.253907 0.773438,0.804687 0.777344,2.22656 0.777343,2.95313 0.777344,2.51562 0.777344,1.15625 0.777344,-0.43359 0.777343,-1.75781 0.777344,-2.36719 0.777344,-2.23438 0.777344,-1.62109 0.777343,-1.476562 0.777344,-1.339844 0.777344,-1.300781 0.777344,-0.894532 0.777343,-0.101562 0.777344,1.175781 0.777344,2.507813 0.777344,2.992187 0.773437,2.38672 0.777344,1.08203 0.777344,-1.05859 0.777343,-3.0625 0.777344,-4.00391 0.777344,-4.261719 0.777344,-3.605468 0.777343,-2.898438 0.777344,-1.667969 0.777344,-0.242187 0.777344,0.988281 0.777343,2.210938 0.777344,3.402343 0.777344,3.640625 0.777344,3.289063 0.777343,2.500001 0.777344,1.8125 0.777344,0.51172 0.773437,-2.46485 0.777344,-2.957027 0.777344,-3.363282 0.777344,-3.804687 0.777343,-3.6875 0.777344,-2.996094 0.777344,-1.472656 0.777344,0.132812 0.777343,1.441407 0.777344,2.847656 0.777344,3.640625 0.777344,4.214844 0.777343,4.843752 0.777344,4.97656 0.777344,3.63281 0.777344,0.49219 0.777343,-3.42578 0.777344,-5.69922 0.773438,-5.105469 0.777343,-4.601562 0.777344,2.265625 0.777344,2.570312 0.777344,1.90625 0.777343,1.011719 0.777344,0.417969 0.777344,0.730469 0.777344,3.320307 0.777343,4.94532 0.777344,3.03515 0.777344,-0.96093 0.777344,-4.63282 0.777343,-5.976559 L 90.924906,93.571 91.70225,89.594438 92.479594,87.321 93.256937,86.219438"
         transform="matrix(1,0,0,-1,200.829,512.821)"
         id="path2042" />
    </g>
    <path
       style="fill:#ffffff;fill-opacity:1;fill-rule:nonzero;stroke:#000000;stroke-width:0.140582;stroke-linecap:butt;stroke-linejoin:miter;stroke-miterlimit:10;stroke-opacity:1"
       d="m 110.87413,115.75813 h 11.41291 v -9.94255 h -11.41291 z m 0,0"
       id="path2046" />
    <path
       style="fill:none;stroke:#000000;stroke-width:0.140582;stroke-linecap:butt;stroke-linejoin:miter;stroke-miterlimit:10;stroke-opacity:1"
       d="m 111.99999,108.62953 h 5.99997"
       id="path2048" />
    <g
       style="fill:#000000;fill-opacity:1"
       id="g2052"
       transform="matrix(0.35277777,0,0,0.35277777,19.598393,-47.662042)">
      <g
         id="use2050"
         transform="translate(281.12299,445.52701)">
        <path
           style="stroke:none"
           d="M 4.46875,-6.59375 H 0.78125 L 0.203125,-5.140625 0.375,-5.046875 c 0.421875,-0.6875 0.609375,-0.8125 1.15625,-0.8125 H 3.6875 l -1.96875,5.9375 H 2.359375 L 4.46875,-6.4375 Z m 0,0"
           id="path10604" />
      </g>
    </g>
    <path
       style="fill:none;stroke:#ff0000;stroke-width:0.140582;stroke-linecap:butt;stroke-linejoin:miter;stroke-miterlimit:10;stroke-opacity:1"
       d="m 111.99999,112.8987 h 5.99997"
       id="path2054" />
    <g
       style="fill:#000000;fill-opacity:1"
       id="g2058"
       transform="matrix(0.35277777,0,0,0.35277777,19.598393,-47.662042)">
      <g
         id="use2056"
         transform="translate(281.12299,457.76099)">
        <path
           style="stroke:none"
           d="m 2.890625,-3.703125 c 0.984375,-0.53125 1.34375,-0.9375 1.34375,-1.625 0,-0.8125 -0.71875,-1.40625 -1.71875,-1.40625 -1.09375,0 -1.890625,0.65625 -1.890625,1.578125 0,0.640625 0.1875,0.921875 1.234375,1.84375 C 0.78125,-2.5 0.5625,-2.1875 0.5625,-1.5 c 0,0.96875 0.78125,1.640625 1.90625,1.640625 1.203125,0 1.96875,-0.65625 1.96875,-1.6875 0,-0.765625 -0.34375,-1.25 -1.546875,-2.15625 z m -0.171875,1.03125 c 0.71875,0.515625 0.953125,0.875 0.953125,1.4375 0,0.640625 -0.4375,1.09375 -1.09375,1.09375 -0.75,0 -1.265625,-0.578125 -1.265625,-1.4375 0,-0.640625 0.21875,-1.0625 0.796875,-1.53125 z M 2.609375,-3.875 c -0.890625,-0.578125 -1.25,-1.046875 -1.25,-1.59375 0,-0.578125 0.4375,-0.984375 1.078125,-0.984375 0.671875,0 1.09375,0.4375 1.09375,1.125 0,0.5625 -0.265625,1.015625 -0.84375,1.390625 -0.046875,0.03125 -0.046875,0.03125 -0.078125,0.0625 z m 0,0"
           id="path10600" />
      </g>
    </g>
  </g>
</svg>
