<?xml version="1.0" encoding="UTF-8" standalone="no"?>
<!-- Created with Inkscape (http://www.inkscape.org/) -->

<svg
   width="40.826401mm"
   height="31.139473mm"
   viewBox="0 0 40.826401 31.139473"
   version="1.1"
   id="svg8879"
   sodipodi:docname="fig-transmission-detail-plot-3.svg"
   inkscape:version="1.1.2 (0a00cf5339, 2022-02-04, custom)"
   xmlns:inkscape="http://www.inkscape.org/namespaces/inkscape"
   xmlns:sodipodi="http://sodipodi.sourceforge.net/DTD/sodipodi-0.dtd"
   xmlns="http://www.w3.org/2000/svg"
   xmlns:svg="http://www.w3.org/2000/svg">
  <sodipodi:namedview
     id="namedview8881"
     pagecolor="#ffffff"
     bordercolor="#666666"
     borderopacity="1.0"
     inkscape:pageshadow="2"
     inkscape:pageopacity="0.0"
     inkscape:pagecheckerboard="0"
     inkscape:document-units="mm"
     showgrid="false"
     inkscape:zoom="2.5620932"
     inkscape:cx="100.30861"
     inkscape:cy="110.26141"
     inkscape:window-width="1099"
     inkscape:window-height="1048"
     inkscape:window-x="56"
     inkscape:window-y="0"
     inkscape:window-maximized="0"
     inkscape:current-layer="layer1"
     fit-margin-top="0"
     fit-margin-left="0"
     fit-margin-right="0"
     fit-margin-bottom="0" />
  <defs
     id="defs8876">
    <clipPath
       id="clip9">
      <path
         d="m 96.238281,400 h 93.253909 v 65.66797 H 96.238281 Z m 0,0"
         id="path992" />
    </clipPath>
    <clipPath
       id="clip10">
      <path
         d="m 96.238281,398 h 93.253909 v 67.66797 H 96.238281 Z m 0,0"
         id="path995" />
    </clipPath>
  </defs>
  <g
     inkscape:label="Calque 1"
     inkscape:groupmode="layer"
     id="layer1"
     transform="translate(-94.084992,-93.08671)">
    <path
       style="fill:none;stroke:#bfbfbf;stroke-width:0.070291;stroke-linecap:butt;stroke-linejoin:miter;stroke-miterlimit:10;stroke-opacity:1"
       d="M 104.02404,120.64275 V 94.443485 m 5.48322,26.199265 V 94.443485 m 5.48321,26.199265 V 94.443485 m 5.48322,26.199265 V 94.443485 m 5.48321,26.199265 V 94.443485 m 5.48321,26.199265 V 94.443485"
       id="path1868" />
    <path
       style="fill:none;stroke:#7f7f7f;stroke-width:0.070291;stroke-linecap:butt;stroke-linejoin:miter;stroke-miterlimit:10;stroke-opacity:1"
       d="M 101.28313,120.64275 V 94.443485 m 5.48321,26.199265 V 94.443485 m 5.48184,26.199265 V 94.443485 m 5.48321,26.199265 V 94.443485 m 5.48321,26.199265 V 94.443485 m 5.48322,26.199265 V 94.443485 m 5.48321,26.199265 V 94.443485"
       id="path1870" />
    <path
       style="fill:none;stroke:#bfbfbf;stroke-width:0.070291;stroke-linecap:butt;stroke-linejoin:miter;stroke-miterlimit:10;stroke-opacity:1"
       d="m 101.28313,118.02172 h 32.8979 m -32.8979,-5.2393 h 32.8979 m -32.8979,-5.2393 h 32.8979 m -32.8979,-5.24068 h 32.8979 m -32.8979,-5.239305 h 32.8979"
       id="path1872" />
    <path
       style="fill:none;stroke:#7f7f7f;stroke-width:0.070291;stroke-linecap:butt;stroke-linejoin:miter;stroke-miterlimit:10;stroke-opacity:1"
       d="m 101.28313,120.64275 h 32.8979 m -32.8979,-5.24068 h 32.8979 m -32.8979,-5.2393 h 32.8979 m -32.8979,-5.24068 h 32.8979 m -32.8979,-5.239302 h 32.8979 m -32.8979,-5.239303 h 32.8979"
       id="path1874" />
    <path
       style="fill:none;stroke:#7f7f7f;stroke-width:0.070291;stroke-linecap:butt;stroke-linejoin:miter;stroke-miterlimit:10;stroke-opacity:1"
       d="m 104.02404,120.64275 v -1.00046 m 5.48322,1.00046 v -1.00046 m 5.48321,1.00046 v -1.00046 m 5.48322,1.00046 v -1.00046 m 5.48321,1.00046 v -1.00046 m 5.48321,1.00046 v -1.00046 M 104.02404,94.443485 v 0.999077 m 5.48322,-0.999077 v 0.999077 m 5.48321,-0.999077 v 0.999077 m 5.48322,-0.999077 v 0.999077 m 5.48321,-0.999077 v 0.999077 m 5.48321,-0.999077 v 0.999077"
       id="path1876" />
    <path
       style="fill:none;stroke:#7f7f7f;stroke-width:0.070291;stroke-linecap:butt;stroke-linejoin:miter;stroke-miterlimit:10;stroke-opacity:1"
       d="m 101.28313,120.64275 v -1.50069 m 5.48321,1.50069 v -1.50069 m 5.48184,1.50069 v -1.50069 m 5.48321,1.50069 v -1.50069 m 5.48321,1.50069 v -1.50069 m 5.48322,1.50069 v -1.50069 m 5.48321,1.50069 v -1.50069 m -32.8979,-24.698575 v 1.499305 m 5.48321,-1.499305 v 1.499305 m 5.48184,-1.499305 v 1.499305 m 5.48321,-1.499305 v 1.499305 m 5.48321,-1.499305 v 1.499305 m 5.48322,-1.499305 v 1.499305 m 5.48321,-1.499305 v 1.499305"
       id="path1878" />
    <path
       style="fill:none;stroke:#7f7f7f;stroke-width:0.070291;stroke-linecap:butt;stroke-linejoin:miter;stroke-miterlimit:10;stroke-opacity:1"
       d="m 101.28313,118.02172 h 0.99907 m -0.99907,-5.2393 h 0.99907 m -0.99907,-5.2393 h 0.99907 m -0.99907,-5.24068 h 0.99907 m -0.99907,-5.239305 h 0.99907 m 31.89883,20.958585 h -1.00045 m 1.00045,-5.2393 h -1.00045 m 1.00045,-5.2393 h -1.00045 m 1.00045,-5.24068 h -1.00045 m 1.00045,-5.239305 h -1.00045"
       id="path1880" />
    <path
       style="fill:none;stroke:#7f7f7f;stroke-width:0.070291;stroke-linecap:butt;stroke-linejoin:miter;stroke-miterlimit:10;stroke-opacity:1"
       d="m 101.28313,120.64275 h 1.4993 m -1.4993,-5.24068 h 1.4993 m -1.4993,-5.2393 h 1.4993 m -1.4993,-5.24068 h 1.4993 m -1.4993,-5.239302 h 1.4993 m -1.4993,-5.239303 h 1.4993 m 31.3986,26.199265 h -1.50068 m 1.50068,-5.24068 h -1.50068 m 1.50068,-5.2393 h -1.50068 m 1.50068,-5.24068 h -1.50068 m 1.50068,-5.239302 h -1.50068 m 1.50068,-5.239303 h -1.50068"
       id="path1882" />
    <path
       style="fill:none;stroke:#000000;stroke-width:0.140582;stroke-linecap:butt;stroke-linejoin:miter;stroke-miterlimit:10;stroke-opacity:1"
       d="M 101.28313,120.64275 V 94.443485 h 32.8979 v 26.199265 z m 0,0"
       id="path1884" />
    <g
       style="fill:#000000;fill-opacity:1"
       id="g1888"
       transform="matrix(0.35277777,0,0,0.35277777,67.3324,-43.63456)">
      <g
         id="use1886"
         transform="translate(93.746002,475.60699)">
        <path
           style="stroke:none"
           d="m 4.578125,-3.1875 c 0,-0.796875 -0.046875,-1.59375 -0.390625,-2.328125 -0.453125,-0.96875 -1.28125,-1.125 -1.6875,-1.125 -0.609375,0 -1.328125,0.265625 -1.75,1.1875 -0.3125,0.6875 -0.359375,1.46875 -0.359375,2.265625 0,0.75 0.03125,1.640625 0.453125,2.40625 0.421875,0.796875 1.15625,1 1.640625,1 0.53125,0 1.296875,-0.203125 1.734375,-1.15625 0.3125,-0.6875 0.359375,-1.46875 0.359375,-2.25 z M 2.484375,0 C 2.09375,0 1.5,-0.25 1.328125,-1.203125 1.21875,-1.796875 1.21875,-2.71875 1.21875,-3.3125 c 0,-0.640625 0,-1.296875 0.078125,-1.828125 0.1875,-1.1875 0.9375,-1.28125 1.1875,-1.28125 0.328125,0 0.984375,0.1875 1.171875,1.171875 0.109375,0.5625 0.109375,1.3125 0.109375,1.9375 0,0.75 0,1.421875 -0.109375,2.0625 C 3.5,-0.296875 2.9375,0 2.484375,0 Z m 0,0"
           id="path10042" />
      </g>
    </g>
    <g
       style="fill:#000000;fill-opacity:1"
       id="g1892"
       transform="matrix(0.35277777,0,0,0.35277777,67.3324,-43.63456)">
      <g
         id="use1890"
         transform="translate(109.288,475.60699)">
        <path
           style="stroke:none"
           d="m 2.9375,-6.375 c 0,-0.25 0,-0.265625 -0.234375,-0.265625 C 2.078125,-6 1.203125,-6 0.890625,-6 v 0.3125 c 0.203125,0 0.78125,0 1.296875,-0.265625 v 5.171875 c 0,0.359375 -0.03125,0.46875 -0.921875,0.46875 h -0.3125 V 0 c 0.34375,-0.03125 1.203125,-0.03125 1.609375,-0.03125 0.390625,0 1.265625,0 1.609375,0.03125 v -0.3125 h -0.3125 c -0.90625,0 -0.921875,-0.109375 -0.921875,-0.46875 z m 0,0"
           id="path9990" />
      </g>
    </g>
    <g
       style="fill:#000000;fill-opacity:1"
       id="g1896"
       transform="matrix(0.35277777,0,0,0.35277777,67.3324,-43.63456)">
      <g
         id="use1894"
         transform="translate(124.831,475.60699)">
        <path
           style="stroke:none"
           d="m 1.265625,-0.765625 1.0625,-1.03125 c 1.546875,-1.375 2.140625,-1.90625 2.140625,-2.90625 0,-1.140625 -0.890625,-1.9375 -2.109375,-1.9375 -1.125,0 -1.859375,0.921875 -1.859375,1.8125 0,0.546875 0.5,0.546875 0.53125,0.546875 0.171875,0 0.515625,-0.109375 0.515625,-0.53125 0,-0.25 -0.1875,-0.515625 -0.53125,-0.515625 -0.078125,0 -0.09375,0 -0.125,0.015625 0.21875,-0.65625 0.765625,-1.015625 1.34375,-1.015625 0.90625,0 1.328125,0.8125 1.328125,1.625 C 3.5625,-3.90625 3.078125,-3.125 2.515625,-2.5 l -1.90625,2.125 C 0.5,-0.265625 0.5,-0.234375 0.5,0 H 4.203125 L 4.46875,-1.734375 H 4.234375 C 4.171875,-1.4375 4.109375,-1 4,-0.84375 3.9375,-0.765625 3.28125,-0.765625 3.0625,-0.765625 Z m 0,0"
           id="path10014" />
      </g>
    </g>
    <g
       style="fill:#000000;fill-opacity:1"
       id="g1900"
       transform="matrix(0.35277777,0,0,0.35277777,67.3324,-43.63456)">
      <g
         id="use1898"
         transform="translate(140.373,475.60699)">
        <path
           style="stroke:none"
           d="m 2.890625,-3.515625 c 0.8125,-0.265625 1.390625,-0.953125 1.390625,-1.75 0,-0.8125 -0.875,-1.375 -1.828125,-1.375 -1,0 -1.765625,0.59375 -1.765625,1.359375 0,0.328125 0.21875,0.515625 0.515625,0.515625 0.296875,0 0.5,-0.21875 0.5,-0.515625 0,-0.484375 -0.46875,-0.484375 -0.609375,-0.484375 0.296875,-0.5 0.953125,-0.625 1.3125,-0.625 0.421875,0 0.96875,0.21875 0.96875,1.109375 0,0.125 -0.03125,0.703125 -0.28125,1.140625 C 2.796875,-3.65625 2.453125,-3.625 2.203125,-3.625 2.125,-3.609375 1.890625,-3.59375 1.8125,-3.59375 c -0.078125,0.015625 -0.140625,0.03125 -0.140625,0.125 0,0.109375 0.0625,0.109375 0.234375,0.109375 h 0.4375 c 0.8125,0 1.1875,0.671875 1.1875,1.65625 0,1.359375 -0.6875,1.640625 -1.125,1.640625 -0.4375,0 -1.1875,-0.171875 -1.53125,-0.75 0.34375,0.046875 0.65625,-0.171875 0.65625,-0.546875 0,-0.359375 -0.265625,-0.5625 -0.546875,-0.5625 -0.25,0 -0.5625,0.140625 -0.5625,0.578125 0,0.90625 0.921875,1.5625 2.015625,1.5625 1.21875,0 2.125,-0.90625 2.125,-1.921875 0,-0.8125 -0.640625,-1.59375 -1.671875,-1.8125 z m 0,0"
           id="path10022" />
      </g>
    </g>
    <g
       style="fill:#000000;fill-opacity:1"
       id="g1904"
       transform="matrix(0.35277777,0,0,0.35277777,67.3324,-43.63456)">
      <g
         id="use1902"
         transform="translate(155.91499,475.60699)">
        <path
           style="stroke:none"
           d="m 2.9375,-1.640625 v 0.859375 c 0,0.359375 -0.03125,0.46875 -0.765625,0.46875 H 1.96875 V 0 C 2.375,-0.03125 2.890625,-0.03125 3.3125,-0.03125 c 0.421875,0 0.9375,0 1.359375,0.03125 v -0.3125 h -0.21875 c -0.734375,0 -0.75,-0.109375 -0.75,-0.46875 V -1.640625 H 4.6875 v -0.3125 H 3.703125 v -4.53125 c 0,-0.203125 0,-0.265625 -0.171875,-0.265625 -0.078125,0 -0.109375,0 -0.1875,0.125 l -3.0625,4.671875 v 0.3125 z m 0.046875,-0.3125 H 0.5625 l 2.421875,-3.71875 z m 0,0"
           id="path9982" />
      </g>
    </g>
    <g
       style="fill:#000000;fill-opacity:1"
       id="g1908"
       transform="matrix(0.35277777,0,0,0.35277777,67.3324,-43.63456)">
      <g
         id="use1906"
         transform="translate(171.45799,475.60699)">
        <path
           style="stroke:none"
           d="m 4.46875,-2 c 0,-1.1875 -0.8125,-2.1875 -1.890625,-2.1875 -0.46875,0 -0.90625,0.15625 -1.265625,0.515625 V -5.625 c 0.203125,0.0625 0.53125,0.125 0.84375,0.125 1.234375,0 1.9375,-0.90625 1.9375,-1.03125 0,-0.0625 -0.03125,-0.109375 -0.109375,-0.109375 0,0 -0.03125,0 -0.078125,0.03125 C 3.703125,-6.515625 3.21875,-6.3125 2.546875,-6.3125 2.15625,-6.3125 1.6875,-6.390625 1.21875,-6.59375 1.140625,-6.625 1.125,-6.625 1.109375,-6.625 1,-6.625 1,-6.546875 1,-6.390625 V -3.4375 c 0,0.171875 0,0.25 0.140625,0.25 0.078125,0 0.09375,-0.015625 0.140625,-0.078125 C 1.390625,-3.421875 1.75,-3.96875 2.5625,-3.96875 c 0.515625,0 0.765625,0.453125 0.84375,0.640625 0.15625,0.375 0.1875,0.75 0.1875,1.25 0,0.359375 0,0.953125 -0.25,1.375 C 3.109375,-0.3125 2.734375,-0.0625 2.28125,-0.0625 c -0.71875,0 -1.296875,-0.53125 -1.46875,-1.109375 0.03125,0 0.0625,0.015625 0.171875,0.015625 0.328125,0 0.5,-0.25 0.5,-0.484375 0,-0.25 -0.171875,-0.5 -0.5,-0.5 C 0.84375,-2.140625 0.5,-2.0625 0.5,-1.609375 0.5,-0.75 1.1875,0.21875 2.296875,0.21875 3.453125,0.21875 4.46875,-0.734375 4.46875,-2 Z m 0,0"
           id="path9970" />
      </g>
    </g>
    <g
       style="fill:#000000;fill-opacity:1"
       id="g1912"
       transform="matrix(0.35277777,0,0,0.35277777,67.3324,-43.63456)">
      <g
         id="use1910"
         transform="translate(187,475.60699)">
        <path
           style="stroke:none"
           d="m 1.3125,-3.265625 v -0.25 c 0,-2.515625 1.234375,-2.875 1.75,-2.875 0.234375,0 0.65625,0.0625 0.875,0.40625 -0.15625,0 -0.546875,0 -0.546875,0.4375 0,0.3125 0.234375,0.46875 0.453125,0.46875 0.15625,0 0.46875,-0.09375 0.46875,-0.484375 0,-0.59375 -0.4375,-1.078125 -1.265625,-1.078125 -1.28125,0 -2.625,1.28125 -2.625,3.484375 0,2.671875 1.15625,3.375 2.078125,3.375 1.109375,0 2.0625,-0.9375 2.0625,-2.25 0,-1.265625 -0.890625,-2.21875 -2,-2.21875 -0.671875,0 -1.046875,0.5 -1.25,0.984375 z M 2.5,-0.0625 c -0.625,0 -0.921875,-0.59375 -0.984375,-0.75 -0.1875,-0.46875 -0.1875,-1.265625 -0.1875,-1.4375 0,-0.78125 0.328125,-1.78125 1.21875,-1.78125 0.171875,0 0.625,0 0.9375,0.625 0.171875,0.359375 0.171875,0.875 0.171875,1.359375 0,0.484375 0,0.984375 -0.171875,1.34375 C 3.1875,-0.109375 2.734375,-0.0625 2.5,-0.0625 Z m 0,0"
           id="path9974" />
      </g>
    </g>
    <g
       style="fill:#000000;fill-opacity:1"
       id="g1916"
       transform="matrix(0.35277777,0,0,0.35277777,67.3324,-43.63456)">
      <g
         id="use1914"
         transform="translate(75.005997,468.46201)">
        <path
           style="stroke:none"
           d="m 6.5625,-2.296875 c 0.171875,0 0.359375,0 0.359375,-0.203125 0,-0.1875 -0.1875,-0.1875 -0.359375,-0.1875 H 1.171875 c -0.171875,0 -0.34375,0 -0.34375,0.1875 0,0.203125 0.171875,0.203125 0.34375,0.203125 z m 0,0"
           id="path9946" />
      </g>
    </g>
    <g
       style="fill:#000000;fill-opacity:1"
       id="g1922"
       transform="matrix(0.35277777,0,0,0.35277777,67.3324,-43.63456)">
      <g
         id="use1918"
         transform="translate(82.753998,468.46201)">
        <path
           style="stroke:none"
           d="m 2.9375,-6.375 c 0,-0.25 0,-0.265625 -0.234375,-0.265625 C 2.078125,-6 1.203125,-6 0.890625,-6 v 0.3125 c 0.203125,0 0.78125,0 1.296875,-0.265625 v 5.171875 c 0,0.359375 -0.03125,0.46875 -0.921875,0.46875 h -0.3125 V 0 c 0.34375,-0.03125 1.203125,-0.03125 1.609375,-0.03125 0.390625,0 1.265625,0 1.609375,0.03125 v -0.3125 h -0.3125 c -0.90625,0 -0.921875,-0.109375 -0.921875,-0.46875 z m 0,0"
           id="path9994" />
      </g>
      <g
         id="use1920"
         transform="translate(87.735298,468.46201)">
        <path
           style="stroke:none"
           d="m 1.625,-4.5625 c -0.453125,-0.296875 -0.5,-0.625 -0.5,-0.796875 0,-0.609375 0.65625,-1.03125 1.359375,-1.03125 0.71875,0 1.359375,0.515625 1.359375,1.234375 0,0.578125 -0.390625,1.046875 -0.984375,1.390625 z m 1.453125,0.953125 C 3.796875,-3.984375 4.28125,-4.5 4.28125,-5.15625 c 0,-0.921875 -0.875,-1.484375 -1.78125,-1.484375 -1,0 -1.8125,0.734375 -1.8125,1.671875 0,0.171875 0.015625,0.625 0.4375,1.09375 0.109375,0.109375 0.484375,0.359375 0.734375,0.53125 C 1.28125,-3.046875 0.421875,-2.5 0.421875,-1.5 c 0,1.046875 1.015625,1.71875 2.0625,1.71875 1.125,0 2.078125,-0.828125 2.078125,-1.890625 0,-0.359375 -0.109375,-0.8125 -0.5,-1.234375 C 3.875,-3.109375 3.71875,-3.203125 3.078125,-3.609375 Z m -1,0.421875 1.234375,0.78125 c 0.28125,0.1875 0.75,0.484375 0.75,1.09375 0,0.734375 -0.75,1.25 -1.5625,1.25 -0.859375,0 -1.578125,-0.609375 -1.578125,-1.4375 0,-0.578125 0.3125,-1.21875 1.15625,-1.6875 z m 0,0"
           id="path10034" />
      </g>
    </g>
    <g
       style="fill:#000000;fill-opacity:1"
       id="g1926"
       transform="matrix(0.35277777,0,0,0.35277777,67.3324,-43.63456)">
      <g
         id="use1924"
         transform="translate(75.005997,453.60901)">
        <path
           style="stroke:none"
           d="m 6.5625,-2.296875 c 0.171875,0 0.359375,0 0.359375,-0.203125 0,-0.1875 -0.1875,-0.1875 -0.359375,-0.1875 H 1.171875 c -0.171875,0 -0.34375,0 -0.34375,0.1875 0,0.203125 0.171875,0.203125 0.34375,0.203125 z m 0,0"
           id="path9950" />
      </g>
    </g>
    <g
       style="fill:#000000;fill-opacity:1"
       id="g1932"
       transform="matrix(0.35277777,0,0,0.35277777,67.3324,-43.63456)">
      <g
         id="use1928"
         transform="translate(82.753998,453.60901)">
        <path
           style="stroke:none"
           d="m 2.9375,-6.375 c 0,-0.25 0,-0.265625 -0.234375,-0.265625 C 2.078125,-6 1.203125,-6 0.890625,-6 v 0.3125 c 0.203125,0 0.78125,0 1.296875,-0.265625 v 5.171875 c 0,0.359375 -0.03125,0.46875 -0.921875,0.46875 h -0.3125 V 0 c 0.34375,-0.03125 1.203125,-0.03125 1.609375,-0.03125 0.390625,0 1.265625,0 1.609375,0.03125 v -0.3125 h -0.3125 c -0.90625,0 -0.921875,-0.109375 -0.921875,-0.46875 z m 0,0"
           id="path9998" />
      </g>
      <g
         id="use1930"
         transform="translate(87.735298,453.60901)">
        <path
           style="stroke:none"
           d="m 1.3125,-3.265625 v -0.25 c 0,-2.515625 1.234375,-2.875 1.75,-2.875 0.234375,0 0.65625,0.0625 0.875,0.40625 -0.15625,0 -0.546875,0 -0.546875,0.4375 0,0.3125 0.234375,0.46875 0.453125,0.46875 0.15625,0 0.46875,-0.09375 0.46875,-0.484375 0,-0.59375 -0.4375,-1.078125 -1.265625,-1.078125 -1.28125,0 -2.625,1.28125 -2.625,3.484375 0,2.671875 1.15625,3.375 2.078125,3.375 1.109375,0 2.0625,-0.9375 2.0625,-2.25 0,-1.265625 -0.890625,-2.21875 -2,-2.21875 -0.671875,0 -1.046875,0.5 -1.25,0.984375 z M 2.5,-0.0625 c -0.625,0 -0.921875,-0.59375 -0.984375,-0.75 -0.1875,-0.46875 -0.1875,-1.265625 -0.1875,-1.4375 0,-0.78125 0.328125,-1.78125 1.21875,-1.78125 0.171875,0 0.625,0 0.9375,0.625 0.171875,0.359375 0.171875,0.875 0.171875,1.359375 0,0.484375 0,0.984375 -0.171875,1.34375 C 3.1875,-0.109375 2.734375,-0.0625 2.5,-0.0625 Z m 0,0"
           id="path9978" />
      </g>
    </g>
    <g
       style="fill:#000000;fill-opacity:1"
       id="g1936"
       transform="matrix(0.35277777,0,0,0.35277777,67.3324,-43.63456)">
      <g
         id="use1934"
         transform="translate(75.005997,438.75601)">
        <path
           style="stroke:none"
           d="m 6.5625,-2.296875 c 0.171875,0 0.359375,0 0.359375,-0.203125 0,-0.1875 -0.1875,-0.1875 -0.359375,-0.1875 H 1.171875 c -0.171875,0 -0.34375,0 -0.34375,0.1875 0,0.203125 0.171875,0.203125 0.34375,0.203125 z m 0,0"
           id="path9954" />
      </g>
    </g>
    <g
       style="fill:#000000;fill-opacity:1"
       id="g1942"
       transform="matrix(0.35277777,0,0,0.35277777,67.3324,-43.63456)">
      <g
         id="use1938"
         transform="translate(82.753998,438.75601)">
        <path
           style="stroke:none"
           d="m 2.9375,-6.375 c 0,-0.25 0,-0.265625 -0.234375,-0.265625 C 2.078125,-6 1.203125,-6 0.890625,-6 v 0.3125 c 0.203125,0 0.78125,0 1.296875,-0.265625 v 5.171875 c 0,0.359375 -0.03125,0.46875 -0.921875,0.46875 h -0.3125 V 0 c 0.34375,-0.03125 1.203125,-0.03125 1.609375,-0.03125 0.390625,0 1.265625,0 1.609375,0.03125 v -0.3125 h -0.3125 c -0.90625,0 -0.921875,-0.109375 -0.921875,-0.46875 z m 0,0"
           id="path10002" />
      </g>
      <g
         id="use1940"
         transform="translate(87.735298,438.75601)">
        <path
           style="stroke:none"
           d="m 2.9375,-1.640625 v 0.859375 c 0,0.359375 -0.03125,0.46875 -0.765625,0.46875 H 1.96875 V 0 C 2.375,-0.03125 2.890625,-0.03125 3.3125,-0.03125 c 0.421875,0 0.9375,0 1.359375,0.03125 v -0.3125 h -0.21875 c -0.734375,0 -0.75,-0.109375 -0.75,-0.46875 V -1.640625 H 4.6875 v -0.3125 H 3.703125 v -4.53125 c 0,-0.203125 0,-0.265625 -0.171875,-0.265625 -0.078125,0 -0.109375,0 -0.1875,0.125 l -3.0625,4.671875 v 0.3125 z m 0.046875,-0.3125 H 0.5625 l 2.421875,-3.71875 z m 0,0"
           id="path9986" />
      </g>
    </g>
    <g
       style="fill:#000000;fill-opacity:1"
       id="g1946"
       transform="matrix(0.35277777,0,0,0.35277777,67.3324,-43.63456)">
      <g
         id="use1944"
         transform="translate(75.005997,423.90302)">
        <path
           style="stroke:none"
           d="m 6.5625,-2.296875 c 0.171875,0 0.359375,0 0.359375,-0.203125 0,-0.1875 -0.1875,-0.1875 -0.359375,-0.1875 H 1.171875 c -0.171875,0 -0.34375,0 -0.34375,0.1875 0,0.203125 0.171875,0.203125 0.34375,0.203125 z m 0,0"
           id="path9958" />
      </g>
    </g>
    <g
       style="fill:#000000;fill-opacity:1"
       id="g1952"
       transform="matrix(0.35277777,0,0,0.35277777,67.3324,-43.63456)">
      <g
         id="use1948"
         transform="translate(82.753998,423.90302)">
        <path
           style="stroke:none"
           d="m 2.9375,-6.375 c 0,-0.25 0,-0.265625 -0.234375,-0.265625 C 2.078125,-6 1.203125,-6 0.890625,-6 v 0.3125 c 0.203125,0 0.78125,0 1.296875,-0.265625 v 5.171875 c 0,0.359375 -0.03125,0.46875 -0.921875,0.46875 h -0.3125 V 0 c 0.34375,-0.03125 1.203125,-0.03125 1.609375,-0.03125 0.390625,0 1.265625,0 1.609375,0.03125 v -0.3125 h -0.3125 c -0.90625,0 -0.921875,-0.109375 -0.921875,-0.46875 z m 0,0"
           id="path10006" />
      </g>
      <g
         id="use1950"
         transform="translate(87.735298,423.90302)">
        <path
           style="stroke:none"
           d="m 1.265625,-0.765625 1.0625,-1.03125 c 1.546875,-1.375 2.140625,-1.90625 2.140625,-2.90625 0,-1.140625 -0.890625,-1.9375 -2.109375,-1.9375 -1.125,0 -1.859375,0.921875 -1.859375,1.8125 0,0.546875 0.5,0.546875 0.53125,0.546875 0.171875,0 0.515625,-0.109375 0.515625,-0.53125 0,-0.25 -0.1875,-0.515625 -0.53125,-0.515625 -0.078125,0 -0.09375,0 -0.125,0.015625 0.21875,-0.65625 0.765625,-1.015625 1.34375,-1.015625 0.90625,0 1.328125,0.8125 1.328125,1.625 C 3.5625,-3.90625 3.078125,-3.125 2.515625,-2.5 l -1.90625,2.125 C 0.5,-0.265625 0.5,-0.234375 0.5,0 H 4.203125 L 4.46875,-1.734375 H 4.234375 C 4.171875,-1.4375 4.109375,-1 4,-0.84375 3.9375,-0.765625 3.28125,-0.765625 3.0625,-0.765625 Z m 0,0"
           id="path10018" />
      </g>
    </g>
    <g
       style="fill:#000000;fill-opacity:1"
       id="g1956"
       transform="matrix(0.35277777,0,0,0.35277777,67.3324,-43.63456)">
      <g
         id="use1954"
         transform="translate(75.005997,409.04999)">
        <path
           style="stroke:none"
           d="m 6.5625,-2.296875 c 0.171875,0 0.359375,0 0.359375,-0.203125 0,-0.1875 -0.1875,-0.1875 -0.359375,-0.1875 H 1.171875 c -0.171875,0 -0.34375,0 -0.34375,0.1875 0,0.203125 0.171875,0.203125 0.34375,0.203125 z m 0,0"
           id="path9962" />
      </g>
    </g>
    <g
       style="fill:#000000;fill-opacity:1"
       id="g1962"
       transform="matrix(0.35277777,0,0,0.35277777,67.3324,-43.63456)">
      <g
         id="use1958"
         transform="translate(82.753998,409.04999)">
        <path
           style="stroke:none"
           d="m 2.9375,-6.375 c 0,-0.25 0,-0.265625 -0.234375,-0.265625 C 2.078125,-6 1.203125,-6 0.890625,-6 v 0.3125 c 0.203125,0 0.78125,0 1.296875,-0.265625 v 5.171875 c 0,0.359375 -0.03125,0.46875 -0.921875,0.46875 h -0.3125 V 0 c 0.34375,-0.03125 1.203125,-0.03125 1.609375,-0.03125 0.390625,0 1.265625,0 1.609375,0.03125 v -0.3125 h -0.3125 c -0.90625,0 -0.921875,-0.109375 -0.921875,-0.46875 z m 0,0"
           id="path10010" />
      </g>
      <g
         id="use1960"
         transform="translate(87.735298,409.04999)">
        <path
           style="stroke:none"
           d="m 4.578125,-3.1875 c 0,-0.796875 -0.046875,-1.59375 -0.390625,-2.328125 -0.453125,-0.96875 -1.28125,-1.125 -1.6875,-1.125 -0.609375,0 -1.328125,0.265625 -1.75,1.1875 -0.3125,0.6875 -0.359375,1.46875 -0.359375,2.265625 0,0.75 0.03125,1.640625 0.453125,2.40625 0.421875,0.796875 1.15625,1 1.640625,1 0.53125,0 1.296875,-0.203125 1.734375,-1.15625 0.3125,-0.6875 0.359375,-1.46875 0.359375,-2.25 z M 2.484375,0 C 2.09375,0 1.5,-0.25 1.328125,-1.203125 1.21875,-1.796875 1.21875,-2.71875 1.21875,-3.3125 c 0,-0.640625 0,-1.296875 0.078125,-1.828125 0.1875,-1.1875 0.9375,-1.28125 1.1875,-1.28125 0.328125,0 0.984375,0.1875 1.171875,1.171875 0.109375,0.5625 0.109375,1.3125 0.109375,1.9375 0,0.75 0,1.421875 -0.109375,2.0625 C 3.5,-0.296875 2.9375,0 2.484375,0 Z m 0,0"
           id="path10046" />
      </g>
    </g>
    <g
       style="fill:#000000;fill-opacity:1"
       id="g1966"
       transform="matrix(0.35277777,0,0,0.35277777,67.3324,-43.63456)">
      <g
         id="use1964"
         transform="translate(79.987,394.19699)">
        <path
           style="stroke:none"
           d="m 6.5625,-2.296875 c 0.171875,0 0.359375,0 0.359375,-0.203125 0,-0.1875 -0.1875,-0.1875 -0.359375,-0.1875 H 1.171875 c -0.171875,0 -0.34375,0 -0.34375,0.1875 0,0.203125 0.171875,0.203125 0.34375,0.203125 z m 0,0"
           id="path9966" />
      </g>
    </g>
    <g
       style="fill:#000000;fill-opacity:1"
       id="g1970"
       transform="matrix(0.35277777,0,0,0.35277777,67.3324,-43.63456)">
      <g
         id="use1968"
         transform="translate(87.736,394.19699)">
        <path
           style="stroke:none"
           d="m 1.625,-4.5625 c -0.453125,-0.296875 -0.5,-0.625 -0.5,-0.796875 0,-0.609375 0.65625,-1.03125 1.359375,-1.03125 0.71875,0 1.359375,0.515625 1.359375,1.234375 0,0.578125 -0.390625,1.046875 -0.984375,1.390625 z m 1.453125,0.953125 C 3.796875,-3.984375 4.28125,-4.5 4.28125,-5.15625 c 0,-0.921875 -0.875,-1.484375 -1.78125,-1.484375 -1,0 -1.8125,0.734375 -1.8125,1.671875 0,0.171875 0.015625,0.625 0.4375,1.09375 0.109375,0.109375 0.484375,0.359375 0.734375,0.53125 C 1.28125,-3.046875 0.421875,-2.5 0.421875,-1.5 c 0,1.046875 1.015625,1.71875 2.0625,1.71875 1.125,0 2.078125,-0.828125 2.078125,-1.890625 0,-0.359375 -0.109375,-0.8125 -0.5,-1.234375 C 3.875,-3.109375 3.71875,-3.203125 3.078125,-3.609375 Z m -1,0.421875 1.234375,0.78125 c 0.28125,0.1875 0.75,0.484375 0.75,1.09375 0,0.734375 -0.75,1.25 -1.5625,1.25 -0.859375,0 -1.578125,-0.609375 -1.578125,-1.4375 0,-0.578125 0.3125,-1.21875 1.15625,-1.6875 z m 0,0"
           id="path10038" />
      </g>
    </g>
    <g
       clip-path="url(#clip9)"
       clip-rule="nonzero"
       id="g1974"
       transform="matrix(0.35277777,0,0,0.35277777,67.3324,-43.63456)">
      <path
         style="fill:none;stroke:#000000;stroke-width:0.3985;stroke-linecap:butt;stroke-linejoin:miter;stroke-miterlimit:10;stroke-opacity:1"
         d="m 0.778625,0.467563 0.777344,0.308593 0.777343,2.363282 0.773438,3.878906 0.777344,6.367187 0.777343,-10.578125 0.777344,10.003907 0.777344,8.464843 0.777344,6.4375 0.777343,4.558594 0.777344,-1.109375 0.777344,12.542969 0.777344,12.851562 0.777343,11.125 0.777344,7.378907 0.777344,3.992187 0.777344,5.511719 0.777343,6.503906 0.777344,4.625 0.777344,1.808594 0.773437,0.238281 0.777344,0.652344 0.777344,1.628906 0.777344,1.35547 0.777343,0.55859 0.777344,-0.32812 0.777344,-0.82422 0.777344,-1.035157 0.777343,-0.871094 0.777344,-0.394531 0.777344,0.04687 0.777344,0.203125 0.777343,-0.01563 0.777344,-0.277344 0.777344,-0.04687 0.777344,0.90625 0.777343,1.445321 0.777344,1.18358 0.773438,0.5 0.777343,-0.43358 0.777344,-0.65625 0.777344,-0.39453 0.777344,-0.21094 0.777343,-0.10547 0.777344,-0.22266 0.777344,-0.22657 0.777344,-0.464839 0.777343,-0.550781 0.777344,-0.01563 0.777344,0.851563 0.777344,1.488277 0.777343,1.06641 0.777344,0.20313 0.777344,-0.35938 0.777344,-0.6875 0.777343,-0.73047 0.773438,-0.47265 0.777344,-0.22266 0.777343,-0.558595 0.777344,-0.832031 0.777344,-1.097656 0.777344,-1.070313 0.777343,-0.617187 0.777344,0.363281 0.777344,1.496094 0.777344,1.949218 0.777343,1.550779 0.777344,1.25391 0.777344,1.07422 0.777344,-0.40625 0.777343,-1.65235 0.777344,-2.660152 0.777344,-2.804688 0.777344,-2.605469 0.773437,-1.914062 0.777344,-0.824219 0.777344,0.140625 0.777343,1.164063 0.777344,2.128906 0.777344,1.953125 0.777344,1.058594 0.777343,0.371093 0.777344,0.667969 0.777344,1.890625 0.777344,1.61719 0.777343,0.88281 0.777344,0.082 0.777344,-1.82422 0.777344,-2.855466 0.777343,-3.28125 0.777344,-2.992188 0.777344,-2.082031 0.773437,-1.265625 0.777344,-0.02734 0.777344,1.445313 0.777344,3.097656 0.777343,4.710938 0.777344,4.347653 0.777344,1.86328 0.777344,-0.25391 0.777343,-1.14453 0.777344,-1.24609 0.777344,-1.898435 0.777344,-2.234375 0.777343,1.152344 0.777344,0.683594 0.777344,-0.0078 0.777344,-0.28125 0.777343,-0.476562 0.777344,-0.453125 0.773438,-0.554688 0.777343,-0.425781 0.777344,0.382813 0.777344,1.410156 0.777344,1.523439 0.777343,0.80078 0.777344,-0.92578 0.777344,-2.359377 0.777344,-2.203125 0.777343,-0.6875"
         transform="matrix(1,0,0,-1,96.237,510.241)"
         id="path1972" />
    </g>
    <g
       clip-path="url(#clip10)"
       clip-rule="nonzero"
       id="g1978"
       transform="matrix(0.35277777,0,0,0.35277777,67.3324,-43.63456)">
      <path
         style="fill:none;stroke:#ff0000;stroke-width:0.3985;stroke-linecap:butt;stroke-linejoin:miter;stroke-miterlimit:10;stroke-opacity:1"
         d="M 0.778625,-0.0011875 1.555969,0.311313 2.333312,2.52225 3.10675,6.268344 l 0.777344,6.1875 0.777343,-11.09375 0.777344,9.386719 0.777344,7.84375 0.777344,7.257812 0.777343,6.601563 0.777344,2.292968 0.777344,12.394532 0.777344,12.617187 0.777343,11.085938 0.777344,7.375 0.777344,3.730468 0.777344,5.171875 0.777343,6.457032 0.777344,4.863281 0.777344,1.781251 0.773437,0.21094 0.777344,0.63281 0.777344,1.58984 0.777344,1.4961 0.777343,0.625 0.777344,-0.44532 0.777344,-1.15625 0.777344,-1.41406 0.777343,-1.08594 0.777344,-0.40234 0.777344,0.22656 0.777344,0.46485 0.777343,0.28906 0.777344,-0.0156 0.777344,0.13672 0.777344,0.95313 0.777343,1.23828 0.777344,0.77344 0.773438,-0.10157 0.777343,-0.95703 0.777344,-1.0664 0.777344,-0.57032 0.777344,-0.19531 0.777343,0.10547 0.777344,0.11719 0.777344,0.10547 0.777344,-0.0898 0.777343,-0.18359 0.777344,0.15234 0.777344,0.60938 0.777344,1.14844 0.777343,0.23046 0.777344,-0.86718 0.777344,-1.4336 0.777344,-1.32422 0.777343,-0.898434 0.773438,-0.15625 0.777344,0.433594 0.777343,0.363281 0.777344,0.1875 0.777344,-0.08984 0.777344,-0.1875 0.777343,0.183593 0.777344,0.871096 0.777344,1.46484 0.777344,1.19141 0.777343,0.043 0.777344,-1.47656 0.777344,-0.92578 0.777344,-1.484372 0.777343,-1.515625 0.777344,-1.605469 0.777344,-1.234375 0.777344,-0.945312 0.773437,-0.253906 0.777344,0.71875 0.777344,1.472656 0.777343,2.210937 0.777344,2.886716 0.777344,2.29297 0.777344,0.87891 0.777343,-0.72657 0.777344,-1.38672 0.777344,-0.6875 0.777344,-0.51562 0.777343,0.45312 0.777344,0.34375 0.777344,-0.55078 0.777344,-0.9414 0.777343,-0.976563 0.777344,-0.945313 0.777344,-0.691406 0.773437,-0.59375 0.777344,0.05078 0.777344,0.660157 0.777344,1.753906 0.777343,3.187499 0.777344,2.77734 0.777344,0.67578 0.777344,-0.73046 0.777343,-1.14454 0.777344,-1.12109 0.777344,-1.10547 0.777344,-0.4375 0.777343,1.77344 0.777344,-0.004 0.777344,-1.3164 0.777344,-2.410158 0.777343,-3.042969 0.777344,-2.710937 0.773438,-1.925781 0.777343,-0.894532 0.777344,0.386719 0.777344,1.421875 0.777344,1.707031 0.777343,2.066407 0.777344,2.269531 0.777344,2.320314 0.777344,1.83593 0.777343,0.49219"
         transform="matrix(1,0,0,-1,96.237,510.241)"
         id="path1976" />
    </g>
    <path
       style="fill:#ffffff;fill-opacity:1;fill-rule:nonzero;stroke:#000000;stroke-width:0.140582;stroke-linecap:butt;stroke-linejoin:miter;stroke-miterlimit:10;stroke-opacity:1"
       d="m 121.71116,119.78561 h 11.41291 v -10.03763 h -11.41291 z m 0,0"
       id="path1980" />
    <path
       style="fill:none;stroke:#000000;stroke-width:0.140582;stroke-linecap:butt;stroke-linejoin:miter;stroke-miterlimit:10;stroke-opacity:1"
       d="m 122.83564,112.61016 h 5.99998"
       id="path1982" />
    <g
       style="fill:#000000;fill-opacity:1"
       id="g1986"
       transform="matrix(0.35277777,0,0,0.35277777,67.3324,-43.63456)">
      <g
         id="use1984"
         transform="translate(176.53101,445.52701)">
        <path
           style="stroke:none"
           d="m 1.796875,-5.8125 h 1.96875 c 0.15625,0 0.1875,-0.015625 0.21875,-0.09375 l 0.375,-0.875 L 4.28125,-6.859375 C 4.125,-6.65625 4.03125,-6.59375 3.8125,-6.59375 H 1.734375 l -1.09375,2.359375 c 0,0.015625 0,0.03125 0,0.046875 0,0.046875 0.03125,0.078125 0.109375,0.078125 0.328125,0 0.71875,0.078125 1.140625,0.203125 1.140625,0.375 1.671875,0.984375 1.671875,1.96875 0,0.953125 -0.609375,1.703125 -1.390625,1.703125 -0.203125,0 -0.375,-0.0625 -0.671875,-0.28125 C 1.1875,-0.75 0.953125,-0.84375 0.75,-0.84375 c -0.296875,0 -0.4375,0.109375 -0.4375,0.359375 0,0.390625 0.46875,0.625 1.21875,0.625 0.84375,0 1.5625,-0.265625 2.0625,-0.78125 C 4.046875,-1.09375 4.25,-1.65625 4.25,-2.40625 c 0,-0.71875 -0.1875,-1.1875 -0.6875,-1.6875 -0.4375,-0.4375 -1,-0.65625 -2.171875,-0.875 z m 0,0"
           id="path10030" />
      </g>
    </g>
    <path
       style="fill:none;stroke:#ff0000;stroke-width:0.140582;stroke-linecap:butt;stroke-linejoin:miter;stroke-miterlimit:10;stroke-opacity:1"
       d="m 122.83564,116.92618 h 5.99998"
       id="path1988" />
    <g
       style="fill:#000000;fill-opacity:1"
       id="g1992"
       transform="matrix(0.35277777,0,0,0.35277777,67.3324,-43.63456)">
      <g
         id="use1990"
         transform="translate(176.53101,457.76099)">
        <path
           style="stroke:none"
           d="M 4.453125,-6.8125 C 3.3125,-6.71875 2.734375,-6.53125 2,-6.015625 0.921875,-5.25 0.34375,-4.109375 0.34375,-2.78125 c 0,0.875 0.265625,1.75 0.6875,2.25 0.390625,0.4375 0.921875,0.671875 1.546875,0.671875 1.234375,0 2.09375,-0.953125 2.09375,-2.328125 0,-1.265625 -0.734375,-2.078125 -1.875,-2.078125 -0.4375,0 -0.65625,0.0625 -1.28125,0.453125 C 1.78125,-5.328125 2.90625,-6.40625 4.46875,-6.65625 Z m -2.046875,3 c 0.859375,0 1.359375,0.71875 1.359375,1.96875 0,1.09375 -0.390625,1.703125 -1.078125,1.703125 -0.890625,0 -1.421875,-0.9375 -1.421875,-2.484375 0,-0.5 0.078125,-0.78125 0.28125,-0.9375 C 1.75,-3.71875 2.0625,-3.8125 2.40625,-3.8125 Z m 0,0"
           id="path10026" />
      </g>
    </g>
  </g>
</svg>
