<?xml version="1.0" encoding="UTF-8" standalone="no"?>
<!-- Created with Inkscape (http://www.inkscape.org/) -->

<svg
   width="33.039864mm"
   height="26.339846mm"
   viewBox="0 0 33.039864 26.339846"
   version="1.1"
   id="svg8879"
   sodipodi:docname="fig-transmission-detail-plot-2.svg"
   inkscape:version="1.1.2 (0a00cf5339, 2022-02-04, custom)"
   xmlns:inkscape="http://www.inkscape.org/namespaces/inkscape"
   xmlns:sodipodi="http://sodipodi.sourceforge.net/DTD/sodipodi-0.dtd"
   xmlns="http://www.w3.org/2000/svg"
   xmlns:svg="http://www.w3.org/2000/svg">
  <sodipodi:namedview
     id="namedview8881"
     pagecolor="#ffffff"
     bordercolor="#666666"
     borderopacity="1.0"
     inkscape:pageshadow="2"
     inkscape:pageopacity="0.0"
     inkscape:pagecheckerboard="0"
     inkscape:document-units="mm"
     showgrid="false"
     inkscape:zoom="3.6233469"
     inkscape:cx="56.853513"
     inkscape:cy="53.127676"
     inkscape:window-width="1099"
     inkscape:window-height="1048"
     inkscape:window-x="56"
     inkscape:window-y="0"
     inkscape:window-maximized="0"
     inkscape:current-layer="layer1"
     fit-margin-top="0"
     fit-margin-left="0"
     fit-margin-right="0"
     fit-margin-bottom="0" />
  <defs
     id="defs8876">
    <clipPath
       id="clip7">
      <path
         d="m 200.82812,313 h 93.25782 v 67.0625 h -93.25782 z m 0,0"
         id="path986" />
    </clipPath>
    <clipPath
       id="clip8">
      <path
         d="m 200.82812,314 h 93.25782 v 66.0625 h -93.25782 z m 0,0"
         id="path989" />
    </clipPath>
  </defs>
  <g
     inkscape:label="Calque 1"
     inkscape:groupmode="layer"
     id="layer1"
     transform="translate(-110.2937,-98.153445)">
    <path
       style="fill:none;stroke:#bfbfbf;stroke-width:0.070291;stroke-linecap:butt;stroke-linejoin:miter;stroke-miterlimit:10;stroke-opacity:1"
       d="M 113.10628,124.423 V 98.223736 M 118.5895,124.423 V 98.223736 M 124.07133,124.423 V 98.223736 M 129.55455,124.423 V 98.223736 M 135.03776,124.423 V 98.223736 M 140.52098,124.423 V 98.223736"
       id="path1828" />
    <path
       style="fill:none;stroke:#7f7f7f;stroke-width:0.070291;stroke-linecap:butt;stroke-linejoin:miter;stroke-miterlimit:10;stroke-opacity:1"
       d="M 110.36399,124.423 V 98.223736 M 115.8472,124.423 V 98.223736 M 121.33042,124.423 V 98.223736 M 126.81363,124.423 V 98.223736 M 132.29684,124.423 V 98.223736 M 137.78006,124.423 V 98.223736 M 143.26327,124.423 V 98.223736"
       id="path1830" />
    <path
       style="fill:none;stroke:#bfbfbf;stroke-width:0.070291;stroke-linecap:butt;stroke-linejoin:miter;stroke-miterlimit:10;stroke-opacity:1"
       d="m 110.36399,121.80335 h 32.89928 m -32.89928,-5.2393 h 32.89928 m -32.89928,-5.24068 h 32.89928 m -32.89928,-5.23931 h 32.89928 m -32.89928,-5.24067 h 32.89928"
       id="path1832" />
    <path
       style="fill:none;stroke:#7f7f7f;stroke-width:0.070291;stroke-linecap:butt;stroke-linejoin:miter;stroke-miterlimit:10;stroke-opacity:1"
       d="m 110.36399,124.423 h 32.89928 m -32.89928,-5.2393 h 32.89928 m -32.89928,-5.24068 h 32.89928 m -32.89928,-5.2393 h 32.89928 m -32.89928,-5.24068 h 32.89928 m -32.89928,-5.239304 h 32.89928"
       id="path1834" />
    <path
       style="fill:none;stroke:#7f7f7f;stroke-width:0.070291;stroke-linecap:butt;stroke-linejoin:miter;stroke-miterlimit:10;stroke-opacity:1"
       d="m 113.10628,124.423 v -1.00046 m 5.48322,1.00046 v -1.00046 m 5.48183,1.00046 v -1.00046 m 5.48322,1.00046 v -1.00046 m 5.48321,1.00046 v -1.00046 m 5.48322,1.00046 v -1.00046 m -27.4147,-25.198804 v 1.000453 m 5.48322,-1.000453 v 1.000453 m 5.48183,-1.000453 v 1.000453 m 5.48322,-1.000453 v 1.000453 m 5.48321,-1.000453 v 1.000453 m 5.48322,-1.000453 v 1.000453"
       id="path1836" />
    <path
       style="fill:none;stroke:#7f7f7f;stroke-width:0.070291;stroke-linecap:butt;stroke-linejoin:miter;stroke-miterlimit:10;stroke-opacity:1"
       d="m 110.36399,124.423 v -1.49931 m 5.48321,1.49931 v -1.49931 m 5.48322,1.49931 v -1.49931 m 5.48321,1.49931 v -1.49931 m 5.48321,1.49931 v -1.49931 m 5.48322,1.49931 v -1.49931 m 5.48321,1.49931 v -1.49931 M 110.36399,98.223736 v 1.499305 m 5.48321,-1.499305 v 1.499305 m 5.48322,-1.499305 v 1.499305 m 5.48321,-1.499305 v 1.499305 m 5.48321,-1.499305 v 1.499305 m 5.48322,-1.499305 v 1.499305 m 5.48321,-1.499305 v 1.499305"
       id="path1838" />
    <path
       style="fill:none;stroke:#7f7f7f;stroke-width:0.070291;stroke-linecap:butt;stroke-linejoin:miter;stroke-miterlimit:10;stroke-opacity:1"
       d="m 110.36399,121.80335 h 1.00045 m -1.00045,-5.2393 h 1.00045 m -1.00045,-5.24068 h 1.00045 m -1.00045,-5.23931 h 1.00045 m -1.00045,-5.24067 h 1.00045 m 31.89883,20.95996 h -1.00045 m 1.00045,-5.2393 h -1.00045 m 1.00045,-5.24068 h -1.00045 m 1.00045,-5.23931 h -1.00045 m 1.00045,-5.24067 h -1.00045"
       id="path1840" />
    <path
       style="fill:none;stroke:#7f7f7f;stroke-width:0.070291;stroke-linecap:butt;stroke-linejoin:miter;stroke-miterlimit:10;stroke-opacity:1"
       d="m 110.36399,124.423 h 1.50068 m -1.50068,-5.2393 h 1.50068 m -1.50068,-5.24068 h 1.50068 m -1.50068,-5.2393 h 1.50068 m -1.50068,-5.24068 h 1.50068 m -1.50068,-5.239304 h 1.50068 m 31.3986,26.199264 h -1.50068 m 1.50068,-5.2393 h -1.50068 m 1.50068,-5.24068 h -1.50068 m 1.50068,-5.2393 h -1.50068 m 1.50068,-5.24068 h -1.50068 m 1.50068,-5.239304 h -1.50068"
       id="path1842" />
    <path
       style="fill:none;stroke:#000000;stroke-width:0.140582;stroke-linecap:butt;stroke-linejoin:miter;stroke-miterlimit:10;stroke-opacity:1"
       d="M 110.36399,124.423 V 98.223736 h 32.89928 V 124.423 Z m 0,0"
       id="path1844" />
    <g
       clip-path="url(#clip7)"
       clip-rule="nonzero"
       id="g1848"
       transform="matrix(0.35277777,0,0,0.35277777,39.516291,-9.6546055)">
      <path
         style="fill:none;stroke:#000000;stroke-width:0.3985;stroke-linecap:butt;stroke-linejoin:miter;stroke-miterlimit:10;stroke-opacity:1"
         d="m 0.776469,1.058438 0.777343,0.820312 0.777344,2.625 0.777344,3.707031 0.777344,5.644532 0.777343,-9.558594 0.777344,9.179687 0.777344,7.96875 0.777344,8.273438 0.777343,7.605469 0.777344,-2.457032 0.777344,12.070313 0.773437,12.949219 0.777344,11.265625 0.777344,7.679687 0.777344,4.261719 0.777343,5.570312 0.777344,6.402344 0.777344,4.417969 0.777344,1.167971 0.777343,-0.004 0.777344,0.85938 0.777344,1.70312 0.777344,1.13672 0.777343,0.17578 0.777344,-0.67187 0.777344,-0.76563 0.777344,-0.57031 0.777343,-0.19922 0.777344,0.21484 0.773438,0.6211 0.777343,0.47656 0.777344,-0.0117 0.777344,-0.58203 0.777344,-0.53125 0.777343,0.33203 0.777344,0.80859 0.777344,0.57032 0.777344,-0.0117 0.777343,-0.64453 0.777344,-0.46485 0.777344,0.28516 0.777344,0.84766 0.777343,1.1289 0.777344,1.00391 0.777344,0.75781 0.777344,0.0234 0.777343,-0.64453 0.773438,-0.70313 0.777344,-0.21484 0.777343,0.0664 0.777344,-0.61328 0.777344,-1.28515 0.777344,-1.1836 0.777343,-0.75 0.777344,-0.0195 0.777344,0.89453 0.777344,1.32813 0.777343,0.96094 0.777344,0.47656 0.777344,-0.0937 0.777344,-0.5 0.777343,-0.51172 0.777344,-0.16797 0.777344,0.28125 h 0.777344 l 0.773437,-1.32422 0.777344,-0.5664 0.777344,-0.89063 0.777343,-0.99219 0.777344,-1.074215 0.777344,-1.320312 0.777344,-1.183594 0.777343,-1.019531 0.777344,-0.597657 0.777344,0.191407 0.777344,0.804687 0.777343,1.355469 0.777344,2.027344 0.777344,1.542972 0.777344,0.40234 0.777343,-0.6875 0.777344,-0.96484 0.777344,-0.593754 0.773437,-1.601562 0.777344,3.656246 0.777344,1.3711 0.777344,-0.22266 0.777343,-1.79297 0.777344,-3.00781 0.777344,-3.355469 0.777344,-2.046875 0.777343,-0.527343 0.777344,1.042968 0.777344,2.011719 0.777344,1.820313 0.777343,1.625 0.777344,1.335937 0.777344,0.32422 0.777344,-0.718751 0.777343,-0.589844 0.777344,-0.519531 0.773438,-2.222656 0.777343,1.074218 0.777344,2.40625 0.777344,0.933594 0.777344,-0.32422 0.777343,-1.546874 0.777344,-2.332031 0.777344,-2.777344 0.777344,-2.578125 0.777343,-1.503906 0.777344,0.589844 0.777344,2.789062 0.777344,3.734375 0.777343,3.578129 0.777344,1.79296 0.777344,-0.53515 0.777344,-0.83985 0.777343,0.17579"
         transform="matrix(1,0,0,-1,200.829,426.035)"
         id="path1846" />
    </g>
    <g
       clip-path="url(#clip8)"
       clip-rule="nonzero"
       id="g1852"
       transform="matrix(0.35277777,0,0,0.35277777,39.516291,-9.6546055)">
      <path
         style="fill:none;stroke:#ff0000;stroke-width:0.3985;stroke-linecap:butt;stroke-linejoin:miter;stroke-miterlimit:10;stroke-opacity:1"
         d="M 0.776469,-1.5625e-4 1.553812,1.058438 2.331156,3.87875 3.1085,7.917813 3.885844,14.027188 4.663187,3.425625 5.440531,13.523281 6.217875,21.445156 6.995219,28.546719 7.772562,39.988125 8.549906,34.824063 9.32725,46.035 l 0.773437,12.390625 0.777344,10.582031 0.777344,6.925782 0.777344,3.714843 0.777343,5.289063 0.777344,6.097656 0.777344,4.332031 0.777344,2.039063 0.777343,0.621094 0.777344,1.035156 0.777344,2.210936 0.777344,2 0.777343,1.12891 0.777344,-0.0156 0.777344,-0.83203 0.777344,-1.32812 0.777343,-1.32032 0.777344,-0.78515 0.773438,-0.207034 0.777343,0.0078 0.777344,-0.195313 0.777344,-0.414062 0.777344,-0.08984 0.777343,1.078119 0.777344,1.85157 0.777344,1.66406 0.777344,0.96484 0.777343,-0.0742 0.777344,-0.45312 0.777344,-0.28125 1.554687,-0.38281 0.777344,-0.29688 0.777344,-0.21094 0.777344,-0.5 0.777343,-0.61328 0.773438,-0.0781 0.777344,0.92578 0.777343,1.53906 0.777344,0.88281 0.777344,-0.10156 0.777344,-0.6875 0.777343,-0.91406 0.777344,-0.72266 0.777344,-0.36718 h 0.777344 l 0.777343,-0.19532 0.777344,-0.29687 0.777344,-0.59375 0.777344,-0.57422 0.777343,-0.18359 0.777344,0.67578 0.777344,1.71093 0.777344,1.79688 0.773437,0.69141 0.777344,-0.28516 0.777344,-1.63281 0.777343,-2.5 0.777344,-2.722658 0.777344,-2.761718 0.777344,-2.25 0.777343,-1.800782 0.777344,-0.992187 0.777344,0.121094 0.777344,0.992187 0.777343,1.871094 0.777344,2.871094 0.777344,2.613281 0.777344,1.773435 0.777343,0.78906 0.777344,0.30469 0.777344,0.38672 0.773437,0.20703 0.777344,-1.53125 0.777344,-1.359373 0.777344,-1.714843 0.777343,-2.386719 0.777344,-3.179688 0.777344,-3.140625 0.777344,-1.851562 0.777343,-0.492188 0.777344,1.253907 0.777344,2.5 0.777344,3.273437 0.777343,4.042969 0.777344,3.699215 0.777344,1.55469 0.777344,-0.37891 0.777343,-0.8789 0.777344,-0.44532 0.773438,-1.05078 0.777343,-2.101558 0.777344,-0.363281 0.777344,0.503906 0.777344,-0.160156 0.777343,-0.863281 0.777344,-1.371094 0.777344,-1.636719 0.777344,-1.84375 0.777343,-1.496093 0.777344,-0.242188 0.777344,1.988281 0.777344,3.546875 0.777343,3.749998 0.777344,2.09375 0.777344,-0.15234 0.777344,-0.375 0.777343,0.78906"
         transform="matrix(1,0,0,-1,200.829,426.035)"
         id="path1850" />
    </g>
    <path
       style="fill:#ffffff;fill-opacity:1;fill-rule:nonzero;stroke:#000000;stroke-width:0.140582;stroke-linecap:butt;stroke-linejoin:miter;stroke-miterlimit:10;stroke-opacity:1"
       d="m 130.79203,123.56723 h 11.41291 V 113.5296 h -11.41291 z m 0,0"
       id="path1854" />
    <path
       style="fill:none;stroke:#000000;stroke-width:0.140582;stroke-linecap:butt;stroke-linejoin:miter;stroke-miterlimit:10;stroke-opacity:1"
       d="m 131.9165,116.39041 h 5.99999"
       id="path1856" />
    <g
       style="fill:#000000;fill-opacity:1"
       id="g1860"
       transform="matrix(0.35277777,0,0,0.35277777,39.516291,-9.6546055)">
      <g
         id="use1858"
         transform="translate(281.12299,359.923)">
        <path
           style="stroke:none"
           d="m 1.53125,-3.296875 c 0.578125,0 0.8125,0.03125 1.046875,0.109375 0.625,0.234375 1.015625,0.796875 1.015625,1.484375 0,0.828125 -0.578125,1.484375 -1.3125,1.484375 -0.265625,0 -0.46875,-0.078125 -0.828125,-0.3125 -0.3125,-0.171875 -0.46875,-0.25 -0.640625,-0.25 -0.234375,0 -0.390625,0.140625 -0.390625,0.359375 0,0.34375 0.4375,0.5625 1.140625,0.5625 0.765625,0 1.546875,-0.265625 2.015625,-0.671875 C 4.046875,-0.9375 4.3125,-1.515625 4.3125,-2.1875 c 0,-0.5 -0.171875,-0.96875 -0.453125,-1.28125 C 3.65625,-3.6875 3.46875,-3.8125 3.03125,-4 c 0.6875,-0.46875 0.9375,-0.828125 0.9375,-1.375 0,-0.8125 -0.640625,-1.359375 -1.5625,-1.359375 -0.5,0 -0.9375,0.171875 -1.296875,0.484375 -0.296875,0.265625 -0.4375,0.53125 -0.65625,1.125 L 0.59375,-5.078125 C 1,-5.8125 1.453125,-6.140625 2.078125,-6.140625 c 0.65625,0 1.109375,0.4375 1.109375,1.0625 0,0.359375 -0.15625,0.71875 -0.40625,0.96875 -0.296875,0.296875 -0.578125,0.453125 -1.25,0.6875 z m 0,0"
           id="path9494" />
      </g>
    </g>
    <path
       style="fill:none;stroke:#ff0000;stroke-width:0.140582;stroke-linecap:butt;stroke-linejoin:miter;stroke-miterlimit:10;stroke-opacity:1"
       d="m 131.9165,120.70643 h 5.99999"
       id="path1862" />
    <g
       style="fill:#000000;fill-opacity:1"
       id="g1866"
       transform="matrix(0.35277777,0,0,0.35277777,39.516291,-9.6546055)">
      <g
         id="use1864"
         transform="translate(281.12299,372.15701)">
        <path
           style="stroke:none"
           d="M 4.703125,-2.296875 H 3.6875 v -4.4375 H 3.25 l -3.125,4.4375 v 0.625 H 2.921875 V 0 H 3.6875 v -1.671875 h 1.015625 z m -1.796875,0 H 0.515625 L 2.90625,-5.71875 Z m 0,0"
           id="path9498" />
      </g>
    </g>
  </g>
</svg>
