<?xml version="1.0" encoding="UTF-8" standalone="no"?>
<!-- Created with Inkscape (http://www.inkscape.org/) -->

<svg
   width="40.166683mm"
   height="28.618883mm"
   viewBox="0 0 40.166683 28.618883"
   version="1.1"
   id="svg8879"
   inkscape:version="1.1.2 (0a00cf5339, 2022-02-04, custom)"
   sodipodi:docname="fig12a.svg"
   xmlns:inkscape="http://www.inkscape.org/namespaces/inkscape"
   xmlns:sodipodi="http://sodipodi.sourceforge.net/DTD/sodipodi-0.dtd"
   xmlns="http://www.w3.org/2000/svg"
   xmlns:svg="http://www.w3.org/2000/svg">
  <sodipodi:namedview
     id="namedview8881"
     pagecolor="#ffffff"
     bordercolor="#666666"
     borderopacity="1.0"
     inkscape:pageshadow="2"
     inkscape:pageopacity="0.0"
     inkscape:pagecheckerboard="0"
     inkscape:document-units="mm"
     showgrid="false"
     fit-margin-top="0"
     fit-margin-left="0"
     fit-margin-right="0"
     fit-margin-bottom="0"
     inkscape:zoom="2.5620932"
     inkscape:cx="87.038209"
     inkscape:cy="77.475715"
     inkscape:window-width="1099"
     inkscape:window-height="1048"
     inkscape:window-x="56"
     inkscape:window-y="0"
     inkscape:window-maximized="0"
     inkscape:current-layer="layer1" />
  <defs
     id="defs8876">
    <clipPath
       id="clip5">
      <path
         d="m 96.238281,309 h 93.253909 v 71.0625 H 96.238281 Z m 0,0"
         id="path980" />
    </clipPath>
    <clipPath
       id="clip6">
      <path
         d="m 96.238281,311 h 93.253909 v 69.0625 H 96.238281 Z m 0,0"
         id="path983" />
    </clipPath>
  </defs>
  <g
     inkscape:label="Calque 1"
     inkscape:groupmode="layer"
     id="layer1"
     transform="translate(-52.617632,-88.958987)">
    <path
       style="fill:none;stroke:#bfbfbf;stroke-width:0.070291;stroke-linecap:butt;stroke-linejoin:miter;stroke-miterlimit:10;stroke-opacity:1"
       d="M 62.557035,116.51415 V 90.314893 M 68.04025,116.51415 V 90.314893 m 5.483214,26.199257 V 90.314893 m 5.483214,26.199257 V 90.314893 m 5.483214,26.199257 V 90.314893 m 5.483215,26.199257 V 90.314893"
       id="path1730" />
    <path
       style="fill:none;stroke:#7f7f7f;stroke-width:0.070291;stroke-linecap:butt;stroke-linejoin:miter;stroke-miterlimit:10;stroke-opacity:1"
       d="M 59.816118,116.51415 V 90.314893 m 5.483214,26.199257 V 90.314893 m 5.481835,26.199257 V 90.314893 m 5.483214,26.199257 V 90.314893 m 5.483215,26.199257 V 90.314893 M 87.23081,116.51415 V 90.314893 m 5.483214,26.199257 V 90.314893"
       id="path1732" />
    <path
       style="fill:none;stroke:#bfbfbf;stroke-width:0.070291;stroke-linecap:butt;stroke-linejoin:miter;stroke-miterlimit:10;stroke-opacity:1"
       d="m 59.816118,113.8945 h 32.897906 m -32.897906,-5.24068 h 32.897906 m -32.897906,-5.2393 H 92.714024 M 59.816118,98.17522 H 92.714024 M 59.816118,92.934544 h 32.897906"
       id="path1734" />
    <path
       style="fill:none;stroke:#7f7f7f;stroke-width:0.070291;stroke-linecap:butt;stroke-linejoin:miter;stroke-miterlimit:10;stroke-opacity:1"
       d="m 59.816118,116.51415 h 32.897906 m -32.897906,-5.2393 h 32.897906 m -32.897906,-5.24068 h 32.897906 m -32.897906,-5.2393 H 92.714024 M 59.816118,95.554194 H 92.714024 M 59.816118,90.314893 h 32.897906"
       id="path1736" />
    <path
       style="fill:none;stroke:#7f7f7f;stroke-width:0.070291;stroke-linecap:butt;stroke-linejoin:miter;stroke-miterlimit:10;stroke-opacity:1"
       d="m 62.557035,116.51415 v -1.00045 m 5.483215,1.00045 v -1.00045 m 5.483214,1.00045 v -1.00045 m 5.483214,1.00045 v -1.00045 m 5.483214,1.00045 v -1.00045 m 5.483215,1.00045 V 115.5137 M 62.557035,90.314893 v 1.000453 m 5.483215,-1.000453 v 1.000453 m 5.483214,-1.000453 v 1.000453 m 5.483214,-1.000453 v 1.000453 m 5.483214,-1.000453 v 1.000453 m 5.483215,-1.000453 v 1.000453"
       id="path1738" />
    <path
       style="fill:none;stroke:#7f7f7f;stroke-width:0.070291;stroke-linecap:butt;stroke-linejoin:miter;stroke-miterlimit:10;stroke-opacity:1"
       d="m 59.816118,116.51415 v -1.4993 m 5.483214,1.4993 v -1.4993 m 5.481835,1.4993 v -1.4993 m 5.483214,1.4993 v -1.4993 m 5.483215,1.4993 v -1.4993 m 5.483214,1.4993 v -1.4993 m 5.483214,1.4993 v -1.4993 M 59.816118,90.314893 v 1.499306 m 5.483214,-1.499306 v 1.499306 m 5.481835,-1.499306 v 1.499306 m 5.483214,-1.499306 v 1.499306 m 5.483215,-1.499306 v 1.499306 m 5.483214,-1.499306 v 1.499306 m 5.483214,-1.499306 v 1.499306"
       id="path1740" />
    <path
       style="fill:none;stroke:#7f7f7f;stroke-width:0.070291;stroke-linecap:butt;stroke-linejoin:miter;stroke-miterlimit:10;stroke-opacity:1"
       d="m 59.816118,113.8945 h 0.999078 m -0.999078,-5.24068 h 0.999078 m -0.999078,-5.2393 h 0.999078 m -0.999078,-5.2393 h 0.999078 m -0.999078,-5.240676 h 0.999078 M 92.714024,113.8945 h -1.000456 m 1.000456,-5.24068 h -1.000456 m 1.000456,-5.2393 h -1.000456 m 1.000456,-5.2393 h -1.000456 m 1.000456,-5.240676 h -1.000456"
       id="path1742" />
    <path
       style="fill:none;stroke:#7f7f7f;stroke-width:0.070291;stroke-linecap:butt;stroke-linejoin:miter;stroke-miterlimit:10;stroke-opacity:1"
       d="m 59.816118,116.51415 h 1.499305 m -1.499305,-5.2393 h 1.499305 m -1.499305,-5.24068 h 1.499305 m -1.499305,-5.2393 h 1.499305 m -1.499305,-5.240676 h 1.499305 m -1.499305,-5.239301 h 1.499305 m 31.398601,26.199257 h -1.500685 m 1.500685,-5.2393 h -1.500685 m 1.500685,-5.24068 h -1.500685 m 1.500685,-5.2393 h -1.500685 m 1.500685,-5.240676 h -1.500685 m 1.500685,-5.239301 h -1.500685"
       id="path1744" />
    <path
       style="fill:none;stroke:#000000;stroke-width:0.140582;stroke-linecap:butt;stroke-linejoin:miter;stroke-miterlimit:10;stroke-opacity:1"
       d="M 59.816118,116.51415 V 90.314893 h 32.897906 v 26.199257 z m 0,0"
       id="path1746" />
    <g
       style="fill:#000000;fill-opacity:1"
       id="g1750"
       transform="matrix(0.35277777,0,0,0.35277777,25.865392,-17.563448)">
      <g
         id="use1748"
         transform="translate(75.004997,382.85901)">
        <path
           style="stroke:none"
           d="m 6.5625,-2.296875 c 0.171875,0 0.359375,0 0.359375,-0.203125 0,-0.1875 -0.1875,-0.1875 -0.359375,-0.1875 H 1.171875 c -0.171875,0 -0.34375,0 -0.34375,0.1875 0,0.203125 0.171875,0.203125 0.34375,0.203125 z m 0,0"
           id="path9072" />
      </g>
    </g>
    <g
       style="fill:#000000;fill-opacity:1"
       id="g1756"
       transform="matrix(0.35277777,0,0,0.35277777,25.865392,-17.563448)">
      <g
         id="use1752"
         transform="translate(82.753998,382.85901)">
        <path
           style="stroke:none"
           d="m 2.9375,-6.375 c 0,-0.25 0,-0.265625 -0.234375,-0.265625 C 2.078125,-6 1.203125,-6 0.890625,-6 v 0.3125 c 0.203125,0 0.78125,0 1.296875,-0.265625 v 5.171875 c 0,0.359375 -0.03125,0.46875 -0.921875,0.46875 h -0.3125 V 0 c 0.34375,-0.03125 1.203125,-0.03125 1.609375,-0.03125 0.390625,0 1.265625,0 1.609375,0.03125 v -0.3125 h -0.3125 c -0.90625,0 -0.921875,-0.109375 -0.921875,-0.46875 z m 0,0"
           id="path9104" />
      </g>
      <g
         id="use1754"
         transform="translate(87.735298,382.85901)">
        <path
           style="stroke:none"
           d="m 1.625,-4.5625 c -0.453125,-0.296875 -0.5,-0.625 -0.5,-0.796875 0,-0.609375 0.65625,-1.03125 1.359375,-1.03125 0.71875,0 1.359375,0.515625 1.359375,1.234375 0,0.578125 -0.390625,1.046875 -0.984375,1.390625 z m 1.453125,0.953125 C 3.796875,-3.984375 4.28125,-4.5 4.28125,-5.15625 c 0,-0.921875 -0.875,-1.484375 -1.78125,-1.484375 -1,0 -1.8125,0.734375 -1.8125,1.671875 0,0.171875 0.015625,0.625 0.4375,1.09375 0.109375,0.109375 0.484375,0.359375 0.734375,0.53125 C 1.28125,-3.046875 0.421875,-2.5 0.421875,-1.5 c 0,1.046875 1.015625,1.71875 2.0625,1.71875 1.125,0 2.078125,-0.828125 2.078125,-1.890625 0,-0.359375 -0.109375,-0.8125 -0.5,-1.234375 C 3.875,-3.109375 3.71875,-3.203125 3.078125,-3.609375 Z m -1,0.421875 1.234375,0.78125 c 0.28125,0.1875 0.75,0.484375 0.75,1.09375 0,0.734375 -0.75,1.25 -1.5625,1.25 -0.859375,0 -1.578125,-0.609375 -1.578125,-1.4375 0,-0.578125 0.3125,-1.21875 1.15625,-1.6875 z m 0,0"
           id="path9136" />
      </g>
    </g>
    <g
       style="fill:#000000;fill-opacity:1"
       id="g1760"
       transform="matrix(0.35277777,0,0,0.35277777,25.865392,-17.563448)">
      <g
         id="use1758"
         transform="translate(75.004997,368.00601)">
        <path
           style="stroke:none"
           d="m 6.5625,-2.296875 c 0.171875,0 0.359375,0 0.359375,-0.203125 0,-0.1875 -0.1875,-0.1875 -0.359375,-0.1875 H 1.171875 c -0.171875,0 -0.34375,0 -0.34375,0.1875 0,0.203125 0.171875,0.203125 0.34375,0.203125 z m 0,0"
           id="path9076" />
      </g>
    </g>
    <g
       style="fill:#000000;fill-opacity:1"
       id="g1766"
       transform="matrix(0.35277777,0,0,0.35277777,25.865392,-17.563448)">
      <g
         id="use1762"
         transform="translate(82.753998,368.00601)">
        <path
           style="stroke:none"
           d="m 2.9375,-6.375 c 0,-0.25 0,-0.265625 -0.234375,-0.265625 C 2.078125,-6 1.203125,-6 0.890625,-6 v 0.3125 c 0.203125,0 0.78125,0 1.296875,-0.265625 v 5.171875 c 0,0.359375 -0.03125,0.46875 -0.921875,0.46875 h -0.3125 V 0 c 0.34375,-0.03125 1.203125,-0.03125 1.609375,-0.03125 0.390625,0 1.265625,0 1.609375,0.03125 v -0.3125 h -0.3125 c -0.90625,0 -0.921875,-0.109375 -0.921875,-0.46875 z m 0,0"
           id="path9108" />
      </g>
      <g
         id="use1764"
         transform="translate(87.735298,368.00601)">
        <path
           style="stroke:none"
           d="m 1.3125,-3.265625 v -0.25 c 0,-2.515625 1.234375,-2.875 1.75,-2.875 0.234375,0 0.65625,0.0625 0.875,0.40625 -0.15625,0 -0.546875,0 -0.546875,0.4375 0,0.3125 0.234375,0.46875 0.453125,0.46875 0.15625,0 0.46875,-0.09375 0.46875,-0.484375 0,-0.59375 -0.4375,-1.078125 -1.265625,-1.078125 -1.28125,0 -2.625,1.28125 -2.625,3.484375 0,2.671875 1.15625,3.375 2.078125,3.375 1.109375,0 2.0625,-0.9375 2.0625,-2.25 0,-1.265625 -0.890625,-2.21875 -2,-2.21875 -0.671875,0 -1.046875,0.5 -1.25,0.984375 z M 2.5,-0.0625 c -0.625,0 -0.921875,-0.59375 -0.984375,-0.75 -0.1875,-0.46875 -0.1875,-1.265625 -0.1875,-1.4375 0,-0.78125 0.328125,-1.78125 1.21875,-1.78125 0.171875,0 0.625,0 0.9375,0.625 0.171875,0.359375 0.171875,0.875 0.171875,1.359375 0,0.484375 0,0.984375 -0.171875,1.34375 C 3.1875,-0.109375 2.734375,-0.0625 2.5,-0.0625 Z m 0,0"
           id="path9096" />
      </g>
    </g>
    <g
       style="fill:#000000;fill-opacity:1"
       id="g1770"
       transform="matrix(0.35277777,0,0,0.35277777,25.865392,-17.563448)">
      <g
         id="use1768"
         transform="translate(75.004997,353.15302)">
        <path
           style="stroke:none"
           d="m 6.5625,-2.296875 c 0.171875,0 0.359375,0 0.359375,-0.203125 0,-0.1875 -0.1875,-0.1875 -0.359375,-0.1875 H 1.171875 c -0.171875,0 -0.34375,0 -0.34375,0.1875 0,0.203125 0.171875,0.203125 0.34375,0.203125 z m 0,0"
           id="path9080" />
      </g>
    </g>
    <g
       style="fill:#000000;fill-opacity:1"
       id="g1776"
       transform="matrix(0.35277777,0,0,0.35277777,25.865392,-17.563448)">
      <g
         id="use1772"
         transform="translate(82.753998,353.15302)">
        <path
           style="stroke:none"
           d="m 2.9375,-6.375 c 0,-0.25 0,-0.265625 -0.234375,-0.265625 C 2.078125,-6 1.203125,-6 0.890625,-6 v 0.3125 c 0.203125,0 0.78125,0 1.296875,-0.265625 v 5.171875 c 0,0.359375 -0.03125,0.46875 -0.921875,0.46875 h -0.3125 V 0 c 0.34375,-0.03125 1.203125,-0.03125 1.609375,-0.03125 0.390625,0 1.265625,0 1.609375,0.03125 v -0.3125 h -0.3125 c -0.90625,0 -0.921875,-0.109375 -0.921875,-0.46875 z m 0,0"
           id="path9112" />
      </g>
      <g
         id="use1774"
         transform="translate(87.735298,353.15302)">
        <path
           style="stroke:none"
           d="m 2.9375,-1.640625 v 0.859375 c 0,0.359375 -0.03125,0.46875 -0.765625,0.46875 H 1.96875 V 0 C 2.375,-0.03125 2.890625,-0.03125 3.3125,-0.03125 c 0.421875,0 0.9375,0 1.359375,0.03125 v -0.3125 h -0.21875 c -0.734375,0 -0.75,-0.109375 -0.75,-0.46875 V -1.640625 H 4.6875 v -0.3125 H 3.703125 v -4.53125 c 0,-0.203125 0,-0.265625 -0.171875,-0.265625 -0.078125,0 -0.109375,0 -0.1875,0.125 l -3.0625,4.671875 v 0.3125 z m 0.046875,-0.3125 H 0.5625 l 2.421875,-3.71875 z m 0,0"
           id="path9100" />
      </g>
    </g>
    <g
       style="fill:#000000;fill-opacity:1"
       id="g1780"
       transform="matrix(0.35277777,0,0,0.35277777,25.865392,-17.563448)">
      <g
         id="use1778"
         transform="translate(75.004997,338.29999)">
        <path
           style="stroke:none"
           d="m 6.5625,-2.296875 c 0.171875,0 0.359375,0 0.359375,-0.203125 0,-0.1875 -0.1875,-0.1875 -0.359375,-0.1875 H 1.171875 c -0.171875,0 -0.34375,0 -0.34375,0.1875 0,0.203125 0.171875,0.203125 0.34375,0.203125 z m 0,0"
           id="path9084" />
      </g>
    </g>
    <g
       style="fill:#000000;fill-opacity:1"
       id="g1786"
       transform="matrix(0.35277777,0,0,0.35277777,25.865392,-17.563448)">
      <g
         id="use1782"
         transform="translate(82.753998,338.29999)">
        <path
           style="stroke:none"
           d="m 2.9375,-6.375 c 0,-0.25 0,-0.265625 -0.234375,-0.265625 C 2.078125,-6 1.203125,-6 0.890625,-6 v 0.3125 c 0.203125,0 0.78125,0 1.296875,-0.265625 v 5.171875 c 0,0.359375 -0.03125,0.46875 -0.921875,0.46875 h -0.3125 V 0 c 0.34375,-0.03125 1.203125,-0.03125 1.609375,-0.03125 0.390625,0 1.265625,0 1.609375,0.03125 v -0.3125 h -0.3125 c -0.90625,0 -0.921875,-0.109375 -0.921875,-0.46875 z m 0,0"
           id="path9116" />
      </g>
      <g
         id="use1784"
         transform="translate(87.735298,338.29999)">
        <path
           style="stroke:none"
           d="m 1.265625,-0.765625 1.0625,-1.03125 c 1.546875,-1.375 2.140625,-1.90625 2.140625,-2.90625 0,-1.140625 -0.890625,-1.9375 -2.109375,-1.9375 -1.125,0 -1.859375,0.921875 -1.859375,1.8125 0,0.546875 0.5,0.546875 0.53125,0.546875 0.171875,0 0.515625,-0.109375 0.515625,-0.53125 0,-0.25 -0.1875,-0.515625 -0.53125,-0.515625 -0.078125,0 -0.09375,0 -0.125,0.015625 0.21875,-0.65625 0.765625,-1.015625 1.34375,-1.015625 0.90625,0 1.328125,0.8125 1.328125,1.625 C 3.5625,-3.90625 3.078125,-3.125 2.515625,-2.5 l -1.90625,2.125 C 0.5,-0.265625 0.5,-0.234375 0.5,0 H 4.203125 L 4.46875,-1.734375 H 4.234375 C 4.171875,-1.4375 4.109375,-1 4,-0.84375 3.9375,-0.765625 3.28125,-0.765625 3.0625,-0.765625 Z m 0,0"
           id="path9124" />
      </g>
    </g>
    <g
       style="fill:#000000;fill-opacity:1"
       id="g1790"
       transform="matrix(0.35277777,0,0,0.35277777,25.865392,-17.563448)">
      <g
         id="use1788"
         transform="translate(75.004997,323.44699)">
        <path
           style="stroke:none"
           d="m 6.5625,-2.296875 c 0.171875,0 0.359375,0 0.359375,-0.203125 0,-0.1875 -0.1875,-0.1875 -0.359375,-0.1875 H 1.171875 c -0.171875,0 -0.34375,0 -0.34375,0.1875 0,0.203125 0.171875,0.203125 0.34375,0.203125 z m 0,0"
           id="path9088" />
      </g>
    </g>
    <g
       style="fill:#000000;fill-opacity:1"
       id="g1796"
       transform="matrix(0.35277777,0,0,0.35277777,25.865392,-17.563448)">
      <g
         id="use1792"
         transform="translate(82.753998,323.44699)">
        <path
           style="stroke:none"
           d="m 2.9375,-6.375 c 0,-0.25 0,-0.265625 -0.234375,-0.265625 C 2.078125,-6 1.203125,-6 0.890625,-6 v 0.3125 c 0.203125,0 0.78125,0 1.296875,-0.265625 v 5.171875 c 0,0.359375 -0.03125,0.46875 -0.921875,0.46875 h -0.3125 V 0 c 0.34375,-0.03125 1.203125,-0.03125 1.609375,-0.03125 0.390625,0 1.265625,0 1.609375,0.03125 v -0.3125 h -0.3125 c -0.90625,0 -0.921875,-0.109375 -0.921875,-0.46875 z m 0,0"
           id="path9120" />
      </g>
      <g
         id="use1794"
         transform="translate(87.735298,323.44699)">
        <path
           style="stroke:none"
           d="m 4.578125,-3.1875 c 0,-0.796875 -0.046875,-1.59375 -0.390625,-2.328125 -0.453125,-0.96875 -1.28125,-1.125 -1.6875,-1.125 -0.609375,0 -1.328125,0.265625 -1.75,1.1875 -0.3125,0.6875 -0.359375,1.46875 -0.359375,2.265625 0,0.75 0.03125,1.640625 0.453125,2.40625 0.421875,0.796875 1.15625,1 1.640625,1 0.53125,0 1.296875,-0.203125 1.734375,-1.15625 0.3125,-0.6875 0.359375,-1.46875 0.359375,-2.25 z M 2.484375,0 C 2.09375,0 1.5,-0.25 1.328125,-1.203125 1.21875,-1.796875 1.21875,-2.71875 1.21875,-3.3125 c 0,-0.640625 0,-1.296875 0.078125,-1.828125 0.1875,-1.1875 0.9375,-1.28125 1.1875,-1.28125 0.328125,0 0.984375,0.1875 1.171875,1.171875 0.109375,0.5625 0.109375,1.3125 0.109375,1.9375 0,0.75 0,1.421875 -0.109375,2.0625 C 3.5,-0.296875 2.9375,0 2.484375,0 Z m 0,0"
           id="path9144" />
      </g>
    </g>
    <g
       style="fill:#000000;fill-opacity:1"
       id="g1800"
       transform="matrix(0.35277777,0,0,0.35277777,25.865392,-17.563448)">
      <g
         id="use1798"
         transform="translate(79.987,308.59399)">
        <path
           style="stroke:none"
           d="m 6.5625,-2.296875 c 0.171875,0 0.359375,0 0.359375,-0.203125 0,-0.1875 -0.1875,-0.1875 -0.359375,-0.1875 H 1.171875 c -0.171875,0 -0.34375,0 -0.34375,0.1875 0,0.203125 0.171875,0.203125 0.34375,0.203125 z m 0,0"
           id="path9092" />
      </g>
    </g>
    <g
       style="fill:#000000;fill-opacity:1"
       id="g1804"
       transform="matrix(0.35277777,0,0,0.35277777,25.865392,-17.563448)">
      <g
         id="use1802"
         transform="translate(87.736,308.59399)">
        <path
           style="stroke:none"
           d="m 1.625,-4.5625 c -0.453125,-0.296875 -0.5,-0.625 -0.5,-0.796875 0,-0.609375 0.65625,-1.03125 1.359375,-1.03125 0.71875,0 1.359375,0.515625 1.359375,1.234375 0,0.578125 -0.390625,1.046875 -0.984375,1.390625 z m 1.453125,0.953125 C 3.796875,-3.984375 4.28125,-4.5 4.28125,-5.15625 c 0,-0.921875 -0.875,-1.484375 -1.78125,-1.484375 -1,0 -1.8125,0.734375 -1.8125,1.671875 0,0.171875 0.015625,0.625 0.4375,1.09375 0.109375,0.109375 0.484375,0.359375 0.734375,0.53125 C 1.28125,-3.046875 0.421875,-2.5 0.421875,-1.5 c 0,1.046875 1.015625,1.71875 2.0625,1.71875 1.125,0 2.078125,-0.828125 2.078125,-1.890625 0,-0.359375 -0.109375,-0.8125 -0.5,-1.234375 C 3.875,-3.109375 3.71875,-3.203125 3.078125,-3.609375 Z m -1,0.421875 1.234375,0.78125 c 0.28125,0.1875 0.75,0.484375 0.75,1.09375 0,0.734375 -0.75,1.25 -1.5625,1.25 -0.859375,0 -1.578125,-0.609375 -1.578125,-1.4375 0,-0.578125 0.3125,-1.21875 1.15625,-1.6875 z m 0,0"
           id="path9140" />
      </g>
    </g>
    <g
       clip-path="url(#clip5)"
       clip-rule="nonzero"
       id="g1808"
       transform="matrix(0.35277777,0,0,0.35277777,25.865392,-17.563448)">
      <path
         style="fill:none;stroke:#000000;stroke-width:0.3985;stroke-linecap:butt;stroke-linejoin:miter;stroke-miterlimit:10;stroke-opacity:1"
         d="M 0.778625,0.434469 1.555969,0.3915 2.333312,2.813375 3.10675,6.407125 3.884094,12.457906 4.661437,8.75e-4 5.438781,8.918844 6.216125,17.692281 6.993469,31.29775 7.770812,34.946188 8.548156,32.684469 9.3255,44.989156 l 0.777344,13.066407 0.777343,11.570312 0.777344,7.730469 0.777344,4.148437 0.777344,5.585938 0.777343,6.296875 0.777344,4.117187 0.777344,1.3125 0.773437,0.164063 0.777344,0.472656 0.777344,1.00391 0.777344,0.84765 0.777343,0.19531 0.777344,-0.38671 0.777344,-0.41407 0.777344,-0.33203 0.777343,-0.21484 0.777344,0.30469 0.777344,0.83203 0.777344,1.01953 0.777343,0.49219 0.777344,-0.15625 0.777344,-0.20704 0.777344,0.4336 0.777343,0.67578 0.777344,0.23047 0.773438,-0.42969 0.777343,-1.00781 0.777344,-0.72266 0.777344,0.082 0.777344,0.57422 0.777343,0.91406 0.777344,0.875 0.777344,0.82032 0.777344,0.17578 0.777343,-0.20703 0.777344,-0.28516 0.777344,0.35938 0.777344,0.30859 0.777343,-0.57422 0.777344,-1.57422 0.777344,-1.64453 0.777344,-0.87891 0.777343,0.17969 0.773438,1.14844 0.777344,1.73828 0.777343,1.42969 0.777344,1.05469 0.777344,0.35546 0.777344,-0.16406 0.777343,-0.41406 0.777344,-0.35938 0.777344,-0.23828 0.777344,-0.95312 0.777343,-2.14844 0.777344,-2.07422 0.777344,-1.718747 0.777344,-0.4375 0.777343,0.394531 0.777344,0.472656 0.777344,0.445313 0.777344,0.335937 0.773437,0.46875 0.777344,1.02734 0.777344,1.25391 0.777343,1.42578 0.777344,1.6875 0.777344,0.67188 0.777344,-1.06641 0.777343,-2.59766 0.777344,-3.320309 0.777344,-2.652343 0.777344,-0.101563 0.777343,3.687495 0.777344,3.67969 0.777344,2.09766 h 0.777344 l 0.777343,-1.57422 0.777344,-1.80078 0.777344,-0.82422 0.773437,-0.27734 0.777344,0.44531 0.777344,0.33203 0.777344,-0.55859 0.777343,-1.49219 0.777344,-1.421876 0.777344,-0.6875 0.777344,-0.01953 0.777343,0.601562 0.777344,0.988281 0.777344,1.578123 0.777344,4.54297 0.777343,3.14453 0.777344,1.33984 0.777344,-1.18359 0.777344,-3.5625 0.777343,-5.08594 0.777344,-5.718745 0.773438,-3.195313 0.777343,0.242188 0.777344,2.074219 0.777344,2.261718 0.777344,1.796875 0.777343,2.054688 0.777344,2.21094 0.777344,2.0664 0.777344,1.84766 0.777343,0.73828"
         transform="matrix(1,0,0,-1,96.237,425.579)"
         id="path1806" />
    </g>
    <g
       clip-path="url(#clip6)"
       clip-rule="nonzero"
       id="g1812"
       transform="matrix(0.35277777,0,0,0.35277777,25.865392,-17.563448)">
      <path
         style="fill:none;stroke:#ff0000;stroke-width:0.3985;stroke-linecap:butt;stroke-linejoin:miter;stroke-miterlimit:10;stroke-opacity:1"
         d="m 0.778625,0.0750938 0.777344,0.1093752 0.777343,2.65625 0.773438,3.777344 0.777344,6.011718 0.777343,-10.390625 0.777344,8.832032 0.777344,7.742187 0.777344,9.914063 0.777343,6.277343 0.777344,2.457032 0.777344,12.125 0.777344,12.050781 0.777343,10.578125 0.777344,6.847656 0.777344,3.109375 0.777344,4.328125 0.777343,5.558594 0.777344,4.460937 0.777344,2.152344 0.773437,0.21875 0.777344,0.3125 0.777344,1.71094 0.777344,2.05468 0.777343,1.48829 0.777344,0.53125 0.777344,-0.23438 0.777344,-0.82422 0.777343,-1.0664 0.777344,-0.69141 0.777344,-0.16406 0.777344,0.0664 0.777343,-0.28515 0.777344,-0.66407 0.777344,-0.3125 0.777344,0.82813 0.777343,1.51172 0.777344,1.3125 0.773438,0.625 0.777343,-0.2461 0.777344,-0.3164 0.777344,0.0508 0.777344,0.14453 0.777343,0.082 0.777344,0.0312 0.777344,-0.11328 0.777344,-0.56641 0.777343,-0.75781 0.777344,-0.33203 0.777344,-0.12891 0.777344,1.67579 0.777343,0.41796 0.777344,-0.37109 0.777344,-0.72656 0.777344,-0.7461 0.777343,-0.54687 0.773438,-0.0898 0.777344,0.25 0.777343,0.0352 0.777344,-0.23828 0.777344,-0.65234 0.777344,-0.86328 0.777343,-0.61719 0.777344,0.10937 0.777344,0.92969 0.777344,1.16406 0.777343,0.34375 0.777344,1.06641 0.777344,0.41797 0.777344,-0.61719 0.777343,-1.47266 0.777344,-2.12109 0.777344,-2.08203 0.777344,-1.878906 0.773437,-1.316406 0.777344,-0.242188 0.777344,0.492188 0.777343,1.167968 0.777344,1.933594 0.777344,1.558594 0.777344,0.628906 0.777343,0.043 0.777344,0.22656 0.777344,1.22656 0.777344,1.2461 0.777343,1.27734 0.777344,0.44922 0.777344,-1.36719 0.777344,-2.95703 0.777343,-3.843749 0.777344,-3.59375 0.777344,-1.789062 0.773437,-0.04297 0.777344,1.515625 0.777344,2.140625 0.777344,1.746094 0.777343,1.160156 0.777344,1.457031 0.777344,2.17188 0.777344,2.35546 0.777343,1.58985 0.777344,0.15234 0.777344,-1.08984 0.777344,-1.80078 0.777343,-0.48047 0.777344,-0.0781 0.777344,-0.95312 0.777344,-2.046877 0.777343,-2.6875 0.777344,-3.007813 0.773438,-1.347656 0.777343,1.441406 0.777344,3.566407 0.777344,4.281253 0.777344,3.46093 0.777343,2.45704 0.777344,0.55468 0.777344,-1.62109 0.777344,-2.13672 0.777343,-1.48828"
         transform="matrix(1,0,0,-1,96.237,425.579)"
         id="path1810" />
    </g>
    <path
       style="fill:#ffffff;fill-opacity:1;fill-rule:nonzero;stroke:#000000;stroke-width:0.140582;stroke-linecap:butt;stroke-linejoin:miter;stroke-miterlimit:10;stroke-opacity:1"
       d="M 80.244156,115.65839 H 91.657067 V 105.62076 H 80.244156 Z m 0,0"
       id="path1814" />
    <path
       style="fill:none;stroke:#000000;stroke-width:0.140582;stroke-linecap:butt;stroke-linejoin:miter;stroke-miterlimit:10;stroke-opacity:1"
       d="m 81.368635,108.48157 h 5.999977"
       id="path1816" />
    <g
       style="fill:#000000;fill-opacity:1"
       id="g1820"
       transform="matrix(0.35277777,0,0,0.35277777,25.865392,-17.563448)">
      <g
         id="use1818"
         transform="translate(176.53101,359.923)">
        <path
           style="stroke:none"
           d="m 2.90625,-6.734375 -1.796875,0.90625 V -5.6875 C 1.21875,-5.734375 1.328125,-5.78125 1.375,-5.796875 1.5625,-5.875 1.71875,-5.90625 1.828125,-5.90625 2.03125,-5.90625 2.125,-5.765625 2.125,-5.4375 v 4.515625 c 0,0.328125 -0.078125,0.546875 -0.234375,0.640625 -0.15625,0.09375 -0.296875,0.125 -0.71875,0.125 V 0 h 2.75 v -0.15625 c -0.78125,0 -0.9375,-0.109375 -0.9375,-0.578125 V -6.71875 Z m 0,0"
           id="path9132" />
      </g>
    </g>
    <path
       style="fill:none;stroke:#ff0000;stroke-width:0.140582;stroke-linecap:butt;stroke-linejoin:miter;stroke-miterlimit:10;stroke-opacity:1"
       d="m 81.368635,112.79758 h 5.999977"
       id="path1822" />
    <g
       style="fill:#000000;fill-opacity:1"
       id="g1826"
       transform="matrix(0.35277777,0,0,0.35277777,25.865392,-17.563448)">
      <g
         id="use1824"
         transform="translate(176.53101,372.15701)">
        <path
           style="stroke:none"
           d="m 4.734375,-1.359375 -0.125,-0.0625 C 4.234375,-0.84375 4.109375,-0.75 3.65625,-0.75 h -2.375 l 1.671875,-1.765625 c 0.890625,-0.921875 1.28125,-1.6875 1.28125,-2.453125 0,-1 -0.8125,-1.765625 -1.859375,-1.765625 -0.546875,0 -1.0625,0.21875 -1.421875,0.609375 C 0.625,-5.78125 0.484375,-5.46875 0.3125,-4.75 l 0.203125,0.046875 C 0.921875,-5.6875 1.28125,-6 1.96875,-6 2.796875,-6 3.375,-5.4375 3.375,-4.59375 3.375,-3.8125 2.90625,-2.890625 2.078125,-2 l -1.78125,1.875 V 0 H 4.1875 Z m 0,0"
           id="path9128" />
      </g>
    </g>
  </g>
</svg>
